<svg width="80" height="80" viewBox="0 0 80 80" fill="none" xmlns="http://www.w3.org/2000/svg">
<rect x="40" y="0.982422" width="55.4767" height="55.4767" rx="12" transform="rotate(45 40 0.982422)" fill="#4E2EB5"/>
<path d="M27.3087 37.46C26.7175 37.46 26.25 36.9925 26.25 36.4012V33.225C26.25 29.4987 29.2887 26.46 33.015 26.46H36.1912C36.7825 26.46 37.25 26.9275 37.25 27.5187C37.25 28.11 36.7825 28.5775 36.1912 28.5775H33.015C30.4437 28.5775 28.3675 30.6675 28.3675 33.225V36.4012C28.3675 36.9925 27.8862 37.46 27.3087 37.46Z" fill="white"/>
<path d="M52.6912 37.46C52.1137 37.46 51.6325 36.9925 51.6325 36.4012V33.225C51.6325 30.6537 49.5425 28.5775 46.985 28.5775H43.8088C43.2175 28.5775 42.75 28.0962 42.75 27.5187C42.75 26.9412 43.2175 26.46 43.8088 26.46H46.985C50.7112 26.46 53.75 29.4987 53.75 33.225V36.4012C53.75 36.9925 53.2825 37.46 52.6912 37.46Z" fill="white"/>
<path d="M46.9849 53.9595H45.0736C44.4961 53.9595 44.0149 53.492 44.0149 52.9008C44.0149 52.3233 44.4824 51.842 45.0736 51.842H46.9849C49.5561 51.842 51.6324 49.752 51.6324 47.1945V45.297C51.6324 44.7195 52.0999 44.2383 52.6911 44.2383C53.2686 44.2383 53.7499 44.7058 53.7499 45.297V47.1945C53.7499 50.9208 50.7111 53.9595 46.9849 53.9595Z" fill="white"/>
<path d="M36.1912 53.96H33.015C29.2887 53.96 26.25 50.9212 26.25 47.195V44.0187C26.25 43.4275 26.7175 42.96 27.3087 42.96C27.9 42.96 28.3675 43.4275 28.3675 44.0187V47.195C28.3675 49.7662 30.4575 51.8425 33.015 51.8425H36.1912C36.7687 51.8425 37.25 52.31 37.25 52.9012C37.25 53.4925 36.7825 53.96 36.1912 53.96Z" fill="white"/>
<path d="M48.8826 39.1514H47.0126H32.9876H31.1176C30.5263 39.1514 30.0588 39.6326 30.0588 40.2101C30.0588 40.7876 30.5263 41.2689 31.1176 41.2689H32.9876H47.0126H48.8826C49.4738 41.2689 49.9413 40.7876 49.9413 40.2101C49.9413 39.6326 49.4738 39.1514 48.8826 39.1514Z" fill="white"/>
<path d="M32.9875 42.8776V43.3314C32.9875 45.6139 34.83 47.4564 37.1125 47.4564H42.8875C45.17 47.4564 47.0125 45.6139 47.0125 43.3314V42.8776C47.0125 42.7126 46.8888 42.5889 46.7238 42.5889H33.2763C33.1113 42.5889 32.9875 42.7126 32.9875 42.8776Z" fill="white"/>
<path d="M32.9875 37.5426V37.0889C32.9875 34.8064 34.83 32.9639 37.1125 32.9639H42.8875C45.17 32.9639 47.0125 34.8064 47.0125 37.0889V37.5426C47.0125 37.7076 46.8888 37.8314 46.7238 37.8314H33.2763C33.1113 37.8314 32.9875 37.7076 32.9875 37.5426Z" fill="white"/>
</svg>
