<svg width="76" height="24" viewBox="0 0 76 24" fill="none" xmlns="http://www.w3.org/2000/svg">
<path d="M8.3873 18.2941C5.90968 18.2941 3.89868 17.4819 2.35414 15.8575C0.817316 14.233 0.0489807 12.0711 0.0489807 9.3716C0.0489807 6.66436 0.809611 4.50243 2.33054 2.8858C3.85164 1.26147 5.84706 0.449219 8.31681 0.449219C10.3944 0.449219 12.1193 0.951451 13.4914 1.95592C14.8713 2.9525 15.6435 4.29045 15.8083 5.96975H13.4443C13.3502 4.85552 12.8485 3.98445 11.939 3.3567C11.0295 2.72107 9.82987 2.40318 8.34025 2.40318C6.56047 2.40318 5.12561 3.01132 4.03581 4.22777C2.95388 5.44405 2.41292 7.15872 2.41292 9.3716C2.41292 11.5768 2.96175 13.2914 4.05941 14.5156C5.15708 15.732 6.59179 16.3402 8.3637 16.3402C10.8492 16.3402 12.6956 15.52 13.9031 13.88V11.255H9.35169V9.19513H16.114V17.9999H14.5028L13.9031 16.1872C12.7348 17.5918 10.8962 18.2941 8.3873 18.2941ZM27.2042 14.7157V11.9496H25.6871C22.4726 11.9496 20.8653 12.8245 20.8653 14.5746C20.8653 15.2102 21.1005 15.7005 21.5709 16.0459C22.0413 16.3832 22.6764 16.552 23.4762 16.552C24.2053 16.552 24.9109 16.3873 25.593 16.0576C26.2751 15.728 26.8122 15.2807 27.2042 14.7157ZM27.2042 16.7169C26.0752 17.7684 24.6209 18.2941 22.8411 18.2941C21.6023 18.2941 20.583 17.9606 19.7834 17.2935C18.9836 16.6187 18.5837 15.7516 18.5837 14.6922C18.5837 11.773 21.0965 10.3134 26.1223 10.3134H27.2042C27.2042 9.41868 27.1571 8.77132 27.0632 8.37115C26.9691 7.96309 26.7064 7.62559 26.2751 7.3588C25.844 7.09202 25.1579 6.95863 24.2171 6.95863C22.2412 6.95863 21.2221 7.66481 21.1593 9.07732H18.9482C19.113 6.51136 20.9083 5.22822 24.3346 5.22822C25.9341 5.22822 27.1807 5.54611 28.0745 6.18173C28.9684 6.81736 29.4152 8.06515 29.4152 9.92493V17.9999H27.2042V16.7169ZM34.931 17.9999H32.7083V0.743483H34.931V17.9999ZM40.4349 17.9999H38.2122V0.743483H40.4349V17.9999ZM49.0202 18.2941C47.1855 18.2941 45.7115 17.7213 44.5982 16.5756C43.4848 15.422 42.9281 13.8173 42.9281 11.7613C42.9281 9.72082 43.4652 8.12397 44.5393 6.97036C45.6214 5.80904 47.0327 5.22822 48.7733 5.22822C50.553 5.22822 51.9722 5.79715 53.0305 6.935C54.0968 8.07286 54.6299 9.68161 54.6299 11.7613V12.291H45.2333C45.3274 13.7348 45.7232 14.806 46.421 15.5044C47.1268 16.2028 47.993 16.552 49.0202 16.552C49.7964 16.552 50.4941 16.3559 51.1136 15.9634C51.7408 15.5633 52.0701 14.9982 52.1014 14.2684H54.3947C54.2222 15.5554 53.6381 16.5481 52.6424 17.2464C51.6546 17.9449 50.4471 18.2941 49.0202 18.2941ZM52.2896 10.5488C52.1093 9.34813 51.7055 8.44957 51.0783 7.85316C50.4511 7.25675 49.6827 6.95863 48.7733 6.95863C47.8872 6.95863 47.1268 7.25675 46.4917 7.85316C45.8566 8.4417 45.4528 9.34025 45.2803 10.5488H52.2896ZM63.6033 7.53543C63.2897 7.44125 62.8388 7.39417 62.2508 7.39417C61.1218 7.39417 60.1536 7.98656 59.3459 9.1715V17.9999H57.1233V5.51075H59.3459V7.25289C60.279 5.90306 61.3609 5.22822 62.5919 5.22822C62.9055 5.22822 63.2427 5.25972 63.6033 5.3224V7.53543ZM65.8495 21.0133C66.9472 21.0133 67.845 20.0088 68.5428 17.9999L63.8268 5.51075H66.2259L69.5306 15.2807L72.8358 5.51075H75.2348L70.5188 17.9999C70.0644 19.1927 69.6758 20.1108 69.3542 20.7543C69.0406 21.4056 68.625 21.951 68.1077 22.3904C67.598 22.8378 66.9708 23.0614 66.2259 23.0614C65.6692 23.0614 65.191 23.0064 64.7911 22.8967V20.8485C65.1361 20.9583 65.4889 21.0133 65.8495 21.0133Z" fill="white"/>
</svg>
