<svg width="263" height="126" viewBox="0 0 263 126" fill="none" xmlns="http://www.w3.org/2000/svg">
<path d="M202.097 36.5904C202.27 36.5892 202.27 36.5892 202.446 36.588C202.824 36.586 203.202 36.5873 203.58 36.5889C203.844 36.5886 204.109 36.5881 204.373 36.5875C204.926 36.5869 205.48 36.5878 206.033 36.59C206.74 36.5926 207.447 36.5911 208.153 36.5883C208.699 36.5867 209.245 36.5872 209.791 36.5884C210.052 36.5887 210.312 36.5883 210.573 36.5873C210.938 36.5861 211.303 36.5879 211.668 36.5904C211.827 36.589 211.827 36.589 211.99 36.5876C213.093 36.6016 214.064 36.933 214.864 37.7093C215.617 38.6686 215.646 39.5456 215.645 40.7275C215.646 40.9028 215.646 40.9028 215.647 41.0816C215.648 41.3339 215.649 41.5863 215.649 41.8386C215.65 42.2385 215.653 42.6383 215.655 43.0381C215.663 44.1744 215.671 45.3107 215.673 46.4471C215.675 47.1434 215.679 47.8396 215.685 48.5359C215.687 48.8006 215.688 49.0653 215.688 49.33C215.687 49.7004 215.691 50.0707 215.695 50.4411C215.694 50.5497 215.693 50.6583 215.692 50.7702C215.709 51.7001 216.09 52.2003 216.668 52.8914C217.389 53.4843 218.216 53.5031 219.114 53.498C219.292 53.4988 219.292 53.4988 219.473 53.4996C219.728 53.5007 219.983 53.5011 220.238 53.5009C220.643 53.5007 221.048 53.5027 221.453 53.5052C222.603 53.5122 223.754 53.516 224.904 53.517C225.609 53.5177 226.314 53.5214 227.019 53.5269C227.287 53.5283 227.555 53.5287 227.822 53.5279C228.198 53.5268 228.573 53.5295 228.948 53.5329C229.112 53.531 229.112 53.531 229.279 53.5291C230.231 53.5444 231.035 53.8542 231.728 54.5141C231.797 54.6127 231.866 54.7112 231.938 54.8128C232.01 54.911 232.081 55.0092 232.155 55.1104C232.538 55.8203 232.501 56.5929 232.5 57.3805C232.501 57.5575 232.501 57.5575 232.502 57.7382C232.503 57.9937 232.504 58.2492 232.504 58.5047C232.505 58.9096 232.508 59.3146 232.511 59.7195C232.518 60.8706 232.526 62.0216 232.528 63.1728C232.53 63.8777 232.534 64.5826 232.54 65.2875C232.542 65.5555 232.543 65.8234 232.543 66.0914C232.542 66.4669 232.546 66.8422 232.55 67.2177C232.549 67.3274 232.548 67.4371 232.547 67.5501C232.564 68.4854 232.863 69.07 233.463 69.7783C234.465 70.4937 235.7 70.3701 236.878 70.359C237.292 70.3551 237.705 70.3559 238.119 70.3578C238.998 70.3609 239.876 70.3579 240.754 70.3546C241.773 70.3514 242.791 70.3507 243.81 70.3547C244.216 70.3552 244.622 70.352 245.028 70.3485C245.279 70.3489 245.53 70.3495 245.78 70.3502C245.892 70.3482 246.004 70.3463 246.119 70.3443C247.111 70.3538 247.916 70.6729 248.622 71.3768C249.195 72.2873 249.402 73.0147 249.393 74.0874C249.394 74.2668 249.394 74.2668 249.395 74.4497C249.397 74.8421 249.396 75.2343 249.394 75.6267C249.395 75.901 249.395 76.1754 249.396 76.4498C249.396 77.0236 249.395 77.5975 249.393 78.1713C249.391 78.9051 249.392 79.6388 249.395 80.3726C249.396 80.9388 249.396 81.505 249.395 82.0712C249.394 82.3417 249.395 82.6122 249.396 82.8827C249.397 83.2614 249.395 83.64 249.393 84.0187C249.394 84.1293 249.395 84.24 249.395 84.354C249.384 85.2494 249.188 85.953 248.605 86.647C248.507 86.7304 248.41 86.8138 248.309 86.8996C248.212 86.985 248.116 87.0703 248.017 87.1582C247.217 87.6656 246.342 87.7305 245.417 87.7293C245.303 87.7303 245.19 87.7313 245.073 87.7323C244.702 87.7352 244.331 87.7358 243.959 87.7361C243.699 87.7371 243.438 87.7381 243.178 87.7392C242.633 87.741 242.088 87.7416 241.543 87.7414C240.848 87.7414 240.154 87.7455 239.459 87.7507C238.921 87.7541 238.384 87.7547 237.846 87.7545C237.59 87.7549 237.334 87.7562 237.078 87.7586C234.053 87.7838 234.053 87.7838 232.99 86.8656C232.256 86.0507 232.13 85.2609 232.134 84.2021C232.133 84.0225 232.133 84.0225 232.131 83.8392C232.13 83.58 232.129 83.3207 232.129 83.0615C232.128 82.6509 232.126 82.2403 232.122 81.8296C232.114 80.6624 232.109 79.4952 232.106 78.328C232.103 77.6132 232.099 76.8985 232.093 76.1837C232.091 75.9119 232.09 75.64 232.09 75.3681C232.09 74.9875 232.087 74.607 232.084 74.2265C232.085 74.1148 232.085 74.0031 232.086 73.8881C232.076 73.1732 231.922 72.7033 231.568 72.0867C231.517 71.9368 231.467 71.7868 231.416 71.6324C231.315 71.6324 231.215 71.6324 231.112 71.6324C231.112 71.5324 231.112 71.4325 231.112 71.3295C229.765 70.8422 228.488 70.8103 227.076 70.813C226.684 70.8137 226.292 70.8115 225.9 70.8087C224.927 70.8022 223.955 70.8005 222.982 70.7986C222.157 70.7969 221.332 70.7933 220.507 70.7873C220.122 70.7853 219.737 70.7859 219.352 70.7866C219.115 70.7852 218.878 70.7837 218.641 70.782C218.535 70.7829 218.43 70.7839 218.321 70.7848C217.563 70.7754 217.051 70.5963 216.383 70.2694C216.383 70.1694 216.383 70.0695 216.383 69.9665C216.283 69.9665 216.182 69.9665 216.079 69.9665C216.079 69.8666 216.079 69.7666 216.079 69.6636C215.979 69.6636 215.879 69.6636 215.775 69.6636C215.349 68.9449 215.255 68.3521 215.261 67.5335C215.26 67.3549 215.26 67.3549 215.259 67.1727C215.257 66.9154 215.257 66.6581 215.258 66.4007C215.258 65.9925 215.256 65.5843 215.253 65.1761C215.248 64.3088 215.246 63.4415 215.244 62.5742C215.242 61.5702 215.239 60.5663 215.232 59.5623C215.23 59.1619 215.23 58.7616 215.231 58.3612C215.237 56.6184 215.237 56.6184 214.712 54.9737C214.562 54.9237 214.412 54.8738 214.257 54.8223C214.257 54.7223 214.257 54.6224 214.257 54.5194C214.11 54.4725 213.963 54.4257 213.811 54.3774C213.346 54.2165 213.346 54.2165 213.194 54.0651C212.836 54.0483 212.483 54.0412 212.125 54.0407C211.957 54.0395 211.957 54.0395 211.786 54.0384C211.414 54.0362 211.042 54.0351 210.67 54.0343C210.411 54.0334 210.152 54.0326 209.894 54.0317C209.35 54.0301 208.806 54.0292 208.262 54.0287C207.568 54.0279 206.874 54.0242 206.18 54.0199C205.644 54.0171 205.109 54.0163 204.574 54.0161C204.318 54.0156 204.063 54.0144 203.807 54.0124C201.929 53.9982 201.929 53.9982 200.135 54.5194C200.135 54.6193 200.135 54.7193 200.135 54.8223C200.019 54.9347 199.903 55.0472 199.784 55.163C198.944 56.0205 198.854 56.7753 198.862 57.9182C198.861 58.0594 198.86 58.2006 198.859 58.3461C198.858 58.6518 198.857 58.9574 198.858 59.2631C198.859 59.7477 198.857 60.2322 198.854 60.7167C198.848 61.7461 198.846 62.7754 198.844 63.8047C198.843 64.9963 198.839 66.188 198.832 67.3796C198.83 67.8555 198.831 68.3313 198.832 68.8072C198.83 69.1012 198.829 69.3952 198.827 69.6892C198.828 69.8858 198.828 69.8858 198.83 70.0863C198.82 71.0911 198.663 72.0629 198.057 72.8901C197.969 72.9685 197.882 73.047 197.791 73.1279C197.698 73.212 197.605 73.2961 197.51 73.3828C196.709 74.0554 196.709 74.0554 196.339 74.0554C196.339 74.1554 196.339 74.2554 196.339 74.3583C196.051 74.6198 196.051 74.6198 195.675 74.9073C195.551 75.003 195.428 75.0986 195.301 75.1972C194.972 75.4184 194.972 75.4184 194.669 75.4184C194.669 75.5184 194.669 75.6183 194.669 75.7213C194.568 75.7213 194.468 75.7213 194.365 75.7213C194.365 75.8213 194.365 75.9212 194.365 76.0242C194.125 76.2378 194.125 76.2378 193.786 76.488C193.235 76.9029 192.696 77.3275 192.163 77.7658C191.645 78.1917 191.121 78.6084 190.588 79.0152C190.087 79.4002 189.644 79.812 189.202 80.2646C188.496 80.8704 188.496 80.8704 188.139 80.8704C188.139 80.9703 188.139 81.0703 188.139 81.1732C187.851 81.4347 187.851 81.4347 187.475 81.7222C187.351 81.8179 187.228 81.9135 187.101 82.0121C186.773 82.2333 186.773 82.2333 186.469 82.2333C186.431 82.3233 186.393 82.4133 186.354 82.506C186.136 82.8896 185.923 83.0622 185.567 83.3218C185.013 83.7365 184.47 84.161 183.935 84.5996C183.725 84.7709 183.725 84.7709 183.511 84.9457C183.2 85.2026 182.893 85.4632 182.587 85.726C182.217 86.0194 182.217 86.0194 181.913 86.0194C181.913 86.1193 181.913 86.2193 181.913 86.3223C181.813 86.3223 181.713 86.3223 181.61 86.3223C181.61 86.4222 181.61 86.5222 181.61 86.6252C181.321 86.8866 181.321 86.8866 180.945 87.1741C180.76 87.3176 180.76 87.3176 180.572 87.464C180.243 87.6853 180.243 87.6853 179.939 87.6853C179.939 87.7852 179.939 87.8852 179.939 87.9881C179.079 88.7636 178.1 89.6062 176.902 89.654C176.197 89.4235 175.711 89.1629 175.232 88.5939C174.98 88.0908 175.055 87.5272 175.053 86.9739C175.052 86.7692 175.052 86.7692 175.05 86.5604C175.047 86.1071 175.046 85.6539 175.044 85.2007C175.043 85.0458 175.043 84.8909 175.042 84.7313C175.039 83.9106 175.037 83.09 175.035 82.2693C175.034 81.4236 175.029 80.578 175.022 79.7324C175.019 79.0807 175.017 78.429 175.017 77.7773C175.016 77.4658 175.014 77.1542 175.011 76.8427C174.982 73.4393 174.982 73.4393 176.047 72.0831C176.173 71.9656 176.298 71.8481 176.428 71.727C176.561 71.6023 176.694 71.4775 176.831 71.349C177.244 70.9941 177.652 70.7035 178.117 70.4208C178.205 70.3334 178.293 70.2459 178.383 70.1558C178.446 70.0933 178.508 70.0309 178.573 69.9665C178.673 69.9665 178.773 69.9665 178.876 69.9665C178.876 69.8666 178.876 69.7666 178.876 69.6636C179.555 69.0579 179.555 69.0579 179.939 69.0579C179.939 68.9579 179.939 68.8579 179.939 68.755C180.202 68.5189 180.202 68.5189 180.575 68.2344C181.219 67.7347 181.845 67.2204 182.464 66.6916C183.094 66.1546 183.731 65.6351 184.406 65.1535C184.658 64.9701 184.658 64.9701 184.887 64.7181C185.102 64.5146 185.102 64.5146 185.406 64.5146C185.406 64.4146 185.406 64.3147 185.406 64.2117C186.085 63.6059 186.085 63.6059 186.469 63.6059C186.469 63.506 186.469 63.406 186.469 63.303C186.757 63.0416 186.757 63.0416 187.133 62.7541C187.256 62.6584 187.38 62.5628 187.507 62.4642C187.835 62.2429 187.835 62.2429 188.139 62.2429C188.189 62.093 188.239 61.9431 188.291 61.7886C188.535 61.5709 188.535 61.5709 188.86 61.3343C189.574 60.7993 190.254 60.2326 190.932 59.6545C192.339 58.4569 192.339 58.4569 192.695 58.4569C192.695 58.3569 192.695 58.257 192.695 58.154C192.795 58.154 192.895 58.154 192.998 58.154C192.998 58.0541 192.998 57.9541 192.998 57.8511C193.287 57.5896 193.287 57.5896 193.663 57.3021C193.786 57.2065 193.909 57.1108 194.036 57.0123C194.365 56.791 194.365 56.791 194.669 56.791C194.669 56.6911 194.669 56.5911 194.669 56.4881C194.863 56.3393 195.064 56.1989 195.266 56.0622C196.997 54.7558 197.916 52.7639 198.251 50.6705C198.359 49.7257 198.355 48.7812 198.355 47.8317C198.354 47.4559 198.356 47.0802 198.359 46.7045C198.366 45.6377 198.37 44.5709 198.371 43.5041C198.372 42.848 198.375 42.192 198.381 41.5359C198.382 41.2873 198.383 41.0386 198.382 40.79C198.381 40.4429 198.383 40.0959 198.387 39.7488C198.387 39.5518 198.388 39.3549 198.388 39.1519C198.5 38.372 198.859 37.9108 199.423 37.378C200.305 36.7852 201.041 36.5813 202.097 36.5904Z" fill="#FEFEFE"/>
<path d="M61.4372 42.8438C61.6632 42.8448 61.8891 42.8466 62.1151 42.8491C62.2303 42.8498 62.3455 42.8504 62.4642 42.8511C62.7496 42.8529 63.035 42.8557 63.3204 42.8585C63.5304 43.2775 63.4893 43.6173 63.4871 44.0855C63.4866 44.269 63.4861 44.4525 63.4856 44.6415C63.4843 44.834 63.4831 45.0265 63.4818 45.2248C63.4807 45.5153 63.4807 45.5153 63.4797 45.8117C63.4779 46.2912 63.4754 46.7708 63.4723 47.2504C63.6081 47.2497 63.7439 47.249 63.8839 47.2483C65.1684 47.2422 66.4528 47.2376 67.7373 47.2347C68.3976 47.2331 69.0578 47.231 69.7181 47.2275C70.3561 47.2242 70.9941 47.2224 71.6321 47.2216C71.8746 47.2211 72.1172 47.22 72.3598 47.2183C75.8021 47.196 75.8021 47.196 77.1386 48.4619C78.0924 49.4929 78.2481 50.6944 78.2578 52.051C78.2592 52.1718 78.2606 52.2927 78.262 52.4172C78.2642 52.6706 78.2655 52.924 78.2661 53.1774C78.2679 53.5643 78.2754 53.9508 78.283 54.3377C78.2845 54.5851 78.2856 54.8324 78.2863 55.0798C78.2893 55.1947 78.2922 55.3095 78.2953 55.4279C78.2901 56.0329 78.2268 56.3051 77.845 56.7846C77.2402 57.2494 76.8041 57.2644 76.0615 57.2638C75.7711 57.2641 75.7711 57.2641 75.4749 57.2644C75.26 57.2639 75.0451 57.2633 74.8302 57.2628C74.6042 57.2627 74.3783 57.2627 74.1523 57.2628C73.5384 57.2629 72.9244 57.262 72.3105 57.2609C71.6691 57.26 71.0277 57.2599 70.3862 57.2597C69.1714 57.2592 67.9566 57.258 66.7417 57.2565C65.3588 57.2548 63.9758 57.2539 62.5929 57.2532C59.7478 57.2516 56.9028 57.2489 54.0577 57.2456C54.0656 57.5223 54.0656 57.5223 54.0737 57.8046C54.078 58.0505 54.0822 58.2964 54.0862 58.5423C54.09 58.6634 54.0938 58.7845 54.0978 58.9094C54.1108 59.9735 53.8749 60.6387 53.2605 61.5238C52.5001 62.2822 51.7576 62.4457 50.7182 62.4577C50.5884 62.4568 50.4587 62.4559 50.325 62.4549C50.189 62.4554 50.0531 62.4558 49.913 62.4563C49.6275 62.4566 49.342 62.4557 49.0566 62.4538C48.6183 62.4514 48.1803 62.4538 47.7421 62.4567C47.4642 62.4564 47.1863 62.4558 46.9084 62.4549C46.7115 62.4563 46.7115 62.4563 46.5106 62.4577C46.1434 62.4534 46.1434 62.4534 45.5543 62.3946C45.2138 61.8852 45.2094 61.6945 45.2126 61.0979C45.2118 60.9509 45.211 60.8039 45.2102 60.6524C45.2506 60.2744 45.2506 60.2744 45.5543 59.9715C45.9892 59.9343 46.4105 59.9149 46.8461 59.9088C46.9738 59.9059 47.1014 59.9029 47.233 59.8999C47.6414 59.8909 48.0499 59.8838 48.4583 59.8769C48.735 59.8711 49.0116 59.8652 49.2882 59.8591C49.9669 59.8443 50.6456 59.8323 51.3245 59.8201C51.3746 58.9705 51.4247 58.1209 51.4763 57.2456C51.1627 57.2508 51.1627 57.2508 50.8428 57.2562C46.4249 57.3095 46.4249 57.3095 44.9564 55.9039C43.7405 54.6003 43.5392 53.2734 43.5571 51.5286C43.6118 50.365 43.9351 49.479 44.4913 48.4619C44.5915 48.4619 44.6918 48.4619 44.795 48.4619C44.8952 48.262 44.9955 48.0621 45.0987 47.8561C45.1989 47.8561 45.2992 47.8561 45.4024 47.8561C45.4525 47.7062 45.5026 47.5563 45.5543 47.4018C45.8028 47.2356 45.8028 47.2356 46.1142 47.0895C46.215 47.0408 46.3158 46.9922 46.4197 46.9422C47.9588 46.2984 49.71 46.2024 51.277 46.8244C52.3989 47.3716 53.2415 48.0559 53.754 49.2191C54.1143 50.4321 54.0927 51.6058 54.0767 52.8632C54.0704 53.5597 54.0642 54.2563 54.0577 54.9739C56.2625 54.9739 58.4674 54.9739 60.739 54.9739C60.7373 54.112 60.7355 53.2501 60.7337 52.3621C60.7329 51.8176 60.7322 51.2731 60.7316 50.7285C60.7307 49.8633 60.7296 48.9981 60.7276 48.133C60.7259 47.4358 60.725 46.7386 60.7246 46.0414C60.7243 45.7748 60.7238 45.5083 60.723 45.2417C60.7219 44.8696 60.7217 44.4975 60.7218 44.1254C60.7212 44.0141 60.7207 43.9028 60.7201 43.7881C60.722 42.8631 60.722 42.8631 61.4372 42.8438ZM47.2246 49.3706C47.2246 49.4705 47.2246 49.5705 47.2246 49.6734C47.1244 49.6734 47.0241 49.6734 46.9209 49.6734C46.2363 50.6866 46.0437 51.6061 46.266 52.8159C46.6515 53.7677 47.1072 54.4279 48.0621 54.8331C48.7495 55.016 49.3833 55.0067 50.0907 54.9929C50.2909 54.9908 50.2909 54.9908 50.4952 54.9887C50.8223 54.9852 51.1493 54.9797 51.4763 54.9739C51.4941 54.2925 51.5048 53.6111 51.5143 52.9295C51.5194 52.7374 51.5245 52.5453 51.5297 52.3473C51.5414 51.2267 51.4928 50.4666 50.8689 49.522C50.2978 48.9524 49.8275 48.8741 49.0468 48.85C48.3152 48.8727 47.8317 48.9669 47.2246 49.3706ZM63.4723 49.6734C63.4723 51.4226 63.4723 53.1718 63.4723 54.9739C67.481 54.9739 71.4898 54.9739 75.6201 54.9739C76.0132 51.1396 76.0132 51.1396 75.0127 49.8249C74.5593 49.5988 74.1487 49.6554 73.643 49.6563C73.5334 49.6562 73.4237 49.6562 73.3108 49.6562C72.9476 49.6563 72.5845 49.6575 72.2213 49.6587C71.9698 49.6589 71.7183 49.6592 71.4668 49.6593C70.8043 49.6599 70.1418 49.6614 69.4792 49.663C68.6846 49.6649 67.89 49.6656 67.0954 49.6664C65.8877 49.6679 64.68 49.6708 63.4723 49.6734Z" fill="#FEFEFE"/>
<path d="M138.029 48.0075C138.505 48.4499 138.83 48.8739 138.941 49.5219C138.979 50.6643 138.769 51.6879 138.371 52.7495C138.335 52.8472 138.298 52.9448 138.261 53.0454C137.953 53.8192 137.575 54.3958 137.118 55.1253C140.426 55.2002 140.426 55.2002 143.8 55.2767C143.746 53.1244 143.746 53.1244 143.677 50.9727C143.673 50.7016 143.669 50.4306 143.666 50.1596C143.659 50.0204 143.652 49.8812 143.645 49.7377C143.644 49.1334 143.647 48.7656 144.088 48.3251C145.784 47.1632 147.874 46.8437 149.888 47.1467C151.222 47.4029 152.281 47.8449 153.518 48.4618C153.518 51.5103 153.518 54.5589 153.518 57.6998C142.143 57.6998 130.768 57.6998 119.049 57.6998C118.998 58.0996 118.948 58.4994 118.897 58.9113C118.412 60.3206 117.601 61.0948 116.296 61.7603C115.348 62.1709 114.457 62.21 113.43 62.243C113.43 61.4434 113.43 60.6438 113.43 59.82C113.773 59.7591 113.773 59.7591 114.123 59.6969C114.815 59.5552 115.396 59.4135 116.012 59.0628C116.529 58.2718 116.635 57.488 116.65 56.5602C116.653 56.3966 116.656 56.2329 116.659 56.0643C116.662 55.8893 116.664 55.7143 116.667 55.534C116.67 55.3536 116.673 55.1731 116.677 54.9872C116.686 54.4117 116.695 53.8362 116.704 53.2606C116.711 52.8701 116.718 52.4796 116.724 52.089C116.74 51.1324 116.756 50.1757 116.771 49.219C117.573 49.219 118.374 49.219 119.2 49.219C119.2 51.2181 119.2 53.2171 119.2 55.2767C122.708 55.2767 126.216 55.2767 129.83 55.2767C129.379 54.577 128.928 53.8774 128.463 53.1565C127.904 51.7497 127.415 50.3973 127.988 48.9268C128.626 47.7592 129.882 47.3547 131.09 46.9947C133.323 46.4557 136.141 46.6104 138.029 48.0075ZM130.285 49.8248C130.002 50.8521 130.45 51.7205 130.947 52.6217C131.57 53.5968 132.384 54.6551 133.474 55.1253C134.202 55.0478 134.535 54.5629 134.988 54.0356C135.758 52.9752 136.511 51.506 136.511 50.1655C136.378 49.783 136.378 49.783 135.942 49.5598C134.078 48.8451 132.098 49.1314 130.285 49.8248ZM146.229 49.9762C146.229 51.7254 146.229 53.4745 146.229 55.2767C147.833 55.2767 149.436 55.2767 151.088 55.2767C151.088 53.5275 151.088 51.7784 151.088 49.9762C150.038 49.6272 149.522 49.4591 148.488 49.4651C148.387 49.4633 148.286 49.4616 148.182 49.4598C147.373 49.4645 147.033 49.6326 146.229 49.9762Z" fill="white"/>
<path d="M26.9185 47.327C27.8801 48.0935 28.5046 49.0626 28.6992 50.279C28.7114 50.6458 28.7155 51.0129 28.714 51.3799C28.7138 51.483 28.7136 51.5861 28.7134 51.6924C28.7125 52.0195 28.7106 52.3466 28.7087 52.6736C28.7079 52.8964 28.7072 53.1191 28.7066 53.3418C28.7049 53.8858 28.7023 54.4297 28.6992 54.9737C29.9413 54.9609 31.1833 54.9465 32.4254 54.9301C33.0021 54.9226 33.5787 54.9155 34.1555 54.9098C34.7118 54.9042 35.268 54.8972 35.8243 54.8892C36.0368 54.8863 36.2493 54.8841 36.4618 54.8823C36.7589 54.8797 37.0559 54.8752 37.3529 54.8705C37.5222 54.8685 37.6915 54.8665 37.8659 54.8644C38.2894 54.862 38.2894 54.862 38.5693 54.5193C38.6194 54.2013 38.6194 54.2013 38.6177 53.8316C38.6207 53.6891 38.6237 53.5466 38.6268 53.3998C38.6286 53.2457 38.6303 53.0915 38.6321 52.9327C38.6351 52.7752 38.638 52.6176 38.6411 52.4553C38.6502 51.9507 38.6572 51.4461 38.6642 50.9415C38.67 50.6 38.6759 50.2584 38.682 49.9169C38.6966 49.0785 38.7095 48.24 38.7211 47.4016C39.1229 47.3975 39.5246 47.3945 39.9264 47.3921C40.0983 47.3902 40.0983 47.3902 40.2737 47.3882C40.5661 47.3869 40.8584 47.3936 41.1507 47.4016C41.3934 47.6436 41.3243 47.8992 41.327 48.2346C41.3285 48.3797 41.3299 48.5248 41.3314 48.6744C41.3324 48.9117 41.3324 48.9117 41.3334 49.1538C41.3342 49.3158 41.3351 49.4777 41.336 49.6446C41.3374 49.9886 41.3384 50.3326 41.339 50.6766C41.3405 51.2012 41.3452 51.7256 41.35 52.2501C41.351 52.5841 41.3518 52.9182 41.3524 53.2522C41.3542 53.4086 41.3561 53.5649 41.358 53.726C41.3546 54.8304 41.2199 55.5662 40.5148 56.4502C39.3067 57.4142 37.9635 57.3057 36.4956 57.2897C36.2658 57.2888 36.0361 57.2882 35.8063 57.2877C35.2052 57.286 34.6041 57.2815 34.003 57.2765C33.3881 57.2718 32.7733 57.2698 32.1585 57.2675C30.9547 57.2626 29.751 57.2549 28.5473 57.2453C28.3841 57.647 28.2293 58.0455 28.0918 58.4568C27.9916 58.4568 27.8914 58.4568 27.7881 58.4568C27.7474 58.5724 27.7067 58.688 27.6647 58.807C27.4918 59.1974 27.3608 59.4063 27.0289 59.6684C26.9286 59.6684 26.8284 59.6684 26.7252 59.6684C26.7252 59.7683 26.7252 59.8683 26.7252 59.9713C25.7154 60.7621 24.6066 61.2713 23.3845 61.6371C23.2814 61.6713 23.1782 61.7055 23.0719 61.7407C20.7226 62.4029 17.9429 61.9498 15.8331 60.7983C14.0756 59.67 13.0092 58.0283 12.4515 56.0338C12.0619 54.2284 12.0892 52.0066 12.7552 50.279C12.8554 50.129 12.9556 49.9791 13.0589 49.8246C13.9826 49.8893 14.5833 50.0298 15.3366 50.5818C15.5062 51.114 15.4863 51.4867 15.3461 52.0205C14.9553 53.8169 15.0818 55.6347 16.0484 57.2264C16.8078 58.271 17.8976 58.7662 19.1328 59.0626C19.7165 59.1238 20.2926 59.1263 20.879 59.1194C21.1025 59.122 21.1025 59.122 21.3304 59.1247C22.6856 59.1193 23.823 58.8542 24.903 58.0025C25.109 57.753 25.312 57.5009 25.5104 57.2453C25.3434 57.2488 25.1764 57.2523 25.0044 57.2559C23.2051 57.2828 21.6458 57.241 20.0439 56.3366C20.0439 56.2367 20.0439 56.1367 20.0439 56.0338C19.8935 55.9838 19.7432 55.9338 19.5883 55.8823C19.5883 55.7824 19.5883 55.6824 19.5883 55.5794C19.438 55.5295 19.2877 55.4795 19.1328 55.428C18.1239 53.992 18.0258 52.1459 18.2869 50.4647C18.6122 49.1952 19.3293 48.0945 20.4045 47.3353C22.389 46.165 24.9467 46.0228 26.9185 47.327ZM21.439 49.9761C20.9572 50.635 20.9316 51.1288 20.9265 51.9354C20.9243 52.0898 20.9222 52.2442 20.92 52.4033C20.9722 53.0755 21.1902 53.5082 21.5623 54.065C21.6626 54.065 21.7628 54.065 21.866 54.065C21.9161 54.2149 21.9663 54.3649 22.0179 54.5193C23.3153 55.1545 24.708 55.0146 26.1178 54.9737C26.1311 54.3174 26.1391 53.6612 26.1462 53.0049C26.1501 52.82 26.1539 52.6352 26.1578 52.4447C26.1898 50.8196 26.1898 50.8196 25.4358 49.4257C24.768 48.8229 24.0841 48.8519 23.219 48.8686C22.4019 48.9562 21.9639 49.3934 21.439 49.9761Z" fill="#FEFEFE"/>
<path d="M95.8158 48.0068C96.6176 48.0068 97.4193 48.0068 98.2454 48.0068C98.2454 48.3067 98.2454 48.6065 98.2454 48.9155C98.364 48.9109 98.4825 48.9063 98.6047 48.9016C100.969 48.8127 103.332 48.7464 105.698 48.7372C105.935 48.7362 106.172 48.7346 106.408 48.7325C109.658 48.7061 109.658 48.7061 110.849 49.6727C112.714 51.6882 111.912 55.0024 111.912 57.3963C107.352 57.3963 102.792 57.3963 98.0935 57.3963C98.0434 57.6961 97.9933 57.996 97.9417 58.3049C97.4138 59.7938 96.2766 60.8983 94.9047 61.6366C93.51 62.2625 91.9608 62.4457 90.5012 61.9395C89.0456 61.2032 88.2506 60.2301 87.7317 58.706C86.965 56.0473 87.6231 53.1255 88.5271 50.5814C88.7931 50.65 89.0588 50.7196 89.3243 50.7896C89.5463 50.8476 89.5463 50.8476 89.7728 50.9067C90.1456 51.0199 90.4641 51.1525 90.8049 51.3386C90.7628 51.5139 90.7207 51.6892 90.6773 51.8698C90.6217 52.1029 90.5662 52.336 90.5106 52.569C90.4829 52.6842 90.4553 52.7994 90.4267 52.9181C90.1669 54.0109 90.0152 55.0422 90.0077 56.1658C90.0045 56.2816 90.0014 56.3973 89.9982 56.5166C89.9912 57.5456 90.2117 58.3481 90.8143 59.2041C91.4569 59.654 92.0025 59.7219 92.7789 59.6679C93.9517 59.4172 94.6882 58.8255 95.3603 57.8506C95.6756 57.3353 95.7049 56.9276 95.7124 56.328C95.7154 56.1431 95.7184 55.9582 95.7215 55.7677C95.7233 55.5688 95.725 55.3698 95.7268 55.1649C95.7297 54.9586 95.7327 54.7523 95.7358 54.5461C95.7435 54.0044 95.7496 53.4626 95.7552 52.9208C95.7613 52.3676 95.7691 51.8143 95.7767 51.2611C95.7914 50.1763 95.804 49.0916 95.8158 48.0068ZM98.2454 51.1871C98.2454 52.4865 98.2454 53.7859 98.2454 55.1246C101.954 55.1246 105.662 55.1246 109.482 55.1246C109.67 52.4286 109.67 52.4286 109.178 51.3386C108.658 51.1654 108.259 51.1689 107.709 51.1699C107.607 51.1699 107.505 51.1699 107.399 51.1699C107.062 51.17 106.724 51.1711 106.386 51.1723C106.152 51.1726 105.918 51.1728 105.684 51.173C105.067 51.1736 104.451 51.1751 103.835 51.1767C103.206 51.1783 102.577 51.179 101.948 51.1797C100.713 51.1814 99.4794 51.184 98.2454 51.1871Z" fill="white"/>
<path d="M98.0935 69.058C99.1374 69.8921 99.8654 70.9919 100.039 72.3329C100.048 72.5016 100.058 72.6703 100.068 72.844C99.2658 72.844 98.4641 72.844 97.638 72.844C97.5534 72.5395 97.5534 72.5395 97.4672 72.2288C97.1679 71.3499 96.7524 70.6993 95.9351 70.2263C94.3609 69.4975 92.4882 69.3825 90.8416 69.9613C89.4545 70.6 88.5634 71.6735 88.0242 73.0807C87.3347 75.1664 87.3982 77.5283 88.3089 79.5359C88.959 80.7405 89.7744 81.5142 91.0611 82.0063C92.9119 82.5347 94.7365 82.2861 96.4707 81.5046C96.6599 81.3986 96.8467 81.2883 97.0306 81.1734C97.1203 81.122 97.2099 81.0707 97.3023 81.0178C97.8348 80.6238 97.9318 80.3306 98.0313 79.6672C98.0842 79.057 98.0834 78.4574 98.0935 77.8416C96.6905 77.8416 95.2874 77.8416 93.8418 77.8416C93.8418 77.142 93.8418 76.4423 93.8418 75.7214C95.9965 75.7214 98.1512 75.7214 100.371 75.7214C100.371 78.4701 100.371 81.2188 100.371 84.0508C99.82 84.0508 99.2688 84.0508 98.7009 84.0508C98.5005 83.601 98.3001 83.1512 98.0935 82.6878C97.9998 82.759 97.906 82.8303 97.8094 82.9037C95.8721 84.3242 93.7335 84.6144 91.3684 84.2839C89.3059 83.8225 87.6094 82.8302 86.4244 81.0562C85.0791 78.7025 84.7528 75.8184 85.3668 73.1753C86.055 70.9728 87.2925 69.3588 89.3356 68.2629C92.0379 66.9836 95.6937 67.2186 98.0935 69.058Z" fill="white"/>
<path d="M36.4387 71.7487C36.6156 71.7508 36.7926 71.753 36.9749 71.7552C37.2403 71.7567 37.2403 71.7567 37.5111 71.7581C37.9619 71.7836 37.9619 71.7836 38.2656 71.935C38.3527 72.3881 38.4208 72.8321 38.4785 73.2891C38.4972 73.4277 38.516 73.5663 38.5352 73.7091C38.5953 74.1556 38.6536 74.6023 38.7116 75.0491C38.7881 75.6299 38.8654 76.2106 38.9436 76.7912C38.9625 76.9323 38.9814 77.0733 39.0009 77.2187C39.169 78.4448 39.3861 79.6572 39.6322 80.8701C39.6655 80.7024 39.6988 80.5347 39.7331 80.362C40.0533 78.7537 40.3814 77.147 40.7141 75.5412C40.7526 75.3553 40.7911 75.1693 40.8308 74.9777C40.9037 74.6262 40.9772 74.2749 41.0512 73.9237C41.1139 73.625 41.1752 73.326 41.2348 73.0267C41.421 72.1198 41.421 72.1198 41.7581 71.7836C42.1083 71.7468 42.1083 71.7468 42.5411 71.7487C42.6963 71.749 42.8515 71.7493 43.0114 71.7496C43.1741 71.7514 43.3367 71.7533 43.5043 71.7552C43.667 71.7553 43.8297 71.7554 43.9972 71.7555C45.208 71.7623 45.208 71.7623 45.5543 71.935C45.6624 72.3114 45.7503 72.6786 45.8295 73.0614C45.855 73.1802 45.8806 73.2991 45.9069 73.4215C46.2057 74.8325 46.4734 76.25 46.743 77.6668C46.9464 78.7361 47.1601 79.8033 47.3764 80.8701C47.6295 79.6046 47.8574 78.3401 48.0265 77.0604C48.0496 76.8863 48.0496 76.8863 48.0732 76.7087C48.1357 76.2335 48.1973 75.7582 48.2575 75.2827C48.3026 74.9286 48.3495 74.5747 48.3967 74.2209C48.4159 74.0628 48.4159 74.0628 48.4355 73.9015C48.5381 73.1436 48.758 72.4923 49.0468 71.7836C49.3979 71.7795 49.7491 71.7766 50.1002 71.7741C50.2958 71.7724 50.4913 71.7706 50.6928 71.7688C51.1726 71.7836 51.1726 71.7836 51.3245 71.935C51.3362 73.2572 51.0634 74.5482 50.806 75.8382C50.6209 76.7712 50.4638 77.7044 50.328 78.6458C50.1891 79.5979 50.0433 80.5478 49.8724 81.4948C49.8378 81.6889 49.8031 81.8829 49.7675 82.0828C49.6542 82.536 49.6542 82.536 49.3505 82.8389C48.9675 82.8733 48.9675 82.8733 48.4904 82.8684C48.3201 82.8675 48.1498 82.8665 47.9743 82.8655C47.7066 82.8617 47.7066 82.8617 47.4334 82.8578C47.2537 82.8564 47.074 82.8551 46.8889 82.8537C46.444 82.8501 45.9991 82.8451 45.5543 82.8389C45.3496 82.3569 45.1965 81.9017 45.0987 81.3877C45.0612 81.1946 45.0612 81.1946 45.0228 80.9976C44.9978 80.865 44.9727 80.7323 44.9469 80.5956C44.7915 79.784 44.6284 78.9809 44.4215 78.1804C44.2368 77.4166 44.0932 76.6433 43.9409 75.8725C43.8886 75.6099 43.8886 75.6099 43.8353 75.3419C43.75 74.913 43.665 74.4842 43.5803 74.0552C43.2065 75.485 42.8946 76.9252 42.5932 78.3713C41.717 82.577 41.717 82.577 41.4544 82.8389C41.1729 82.8521 40.8909 82.8551 40.6091 82.8537C40.4384 82.8532 40.2676 82.8527 40.0916 82.8522C39.9118 82.8509 39.732 82.8496 39.5468 82.8483C39.3664 82.8477 39.1861 82.847 39.0002 82.8463C38.5529 82.8445 38.1055 82.842 37.6582 82.8389C37.1654 81.7172 37.004 80.5694 36.823 79.3652C36.7902 79.1535 36.7572 78.9419 36.7241 78.7303C36.675 78.417 36.626 78.1036 36.5775 77.7902C36.3372 76.2394 36.0745 74.6908 35.7346 73.1584C35.6758 72.7911 35.6565 72.4577 35.6842 72.0865C35.9879 71.7836 35.9879 71.7836 36.4387 71.7487Z" fill="#FEFEFE"/>
<path d="M145.544 72.1638C145.654 72.1709 145.765 72.178 145.879 72.1853C146.147 72.2026 146.416 72.2202 146.685 72.2378C146.716 72.3303 146.747 72.4228 146.78 72.5181C147.107 73.4838 147.435 74.4493 147.763 75.4147C147.885 75.7747 148.007 76.1347 148.129 76.4948C148.305 77.0133 148.481 77.5316 148.657 78.05C148.738 78.2902 148.738 78.2902 148.821 78.5353C149.092 79.3294 149.376 80.1051 149.722 80.87C149.758 80.7641 149.793 80.6582 149.83 80.549C150.167 79.5527 150.505 78.5566 150.842 77.5606C151.016 77.0485 151.19 76.5363 151.363 76.024C151.562 75.4356 151.761 74.8474 151.961 74.2592C152.023 74.0744 152.086 73.8897 152.15 73.6994C152.207 73.5296 152.265 73.3598 152.325 73.1849C152.376 73.0346 152.427 72.8843 152.479 72.7294C152.607 72.3892 152.607 72.3892 152.759 72.2378C153.143 72.2267 153.523 72.2238 153.907 72.2283C154.069 72.2293 154.069 72.2293 154.234 72.2304C154.502 72.2322 154.769 72.2349 155.036 72.2378C154.939 73.013 154.706 73.6806 154.424 74.4029C154.377 74.5256 154.329 74.6484 154.281 74.7748C154.125 75.1788 153.969 75.5824 153.812 75.986C153.647 76.4128 153.483 76.8398 153.318 77.2667C153.204 77.5623 153.09 77.8578 152.976 78.1533C152.574 79.1948 152.178 80.2385 151.785 81.2835C151.624 81.7114 151.462 82.1393 151.301 82.5671C151.198 82.84 151.096 83.113 150.994 83.3862C149.438 87.5529 149.438 87.5529 147.9 88.5935C147.363 88.7719 146.927 88.7651 146.362 88.7639C146.075 88.7645 146.075 88.7645 145.782 88.7651C145.318 88.745 145.318 88.745 145.166 88.5935C145.155 88.2624 145.154 87.931 145.157 87.5997C145.158 87.4183 145.16 87.237 145.161 87.0501C145.163 86.9098 145.164 86.7694 145.166 86.6248C145.254 86.6301 145.342 86.6353 145.433 86.6408C146.222 86.668 146.792 86.6615 147.444 86.1705C148.012 85.416 148.445 84.7023 148.507 83.7474C148.386 83.2495 148.2 82.7819 148.01 82.3063C147.957 82.1668 147.904 82.0273 147.848 81.8835C147.675 81.4313 147.498 80.9803 147.321 80.5292C147.201 80.2204 147.082 79.9114 146.963 79.6024C146.728 78.9922 146.491 78.3825 146.253 77.7732C145.972 77.0519 145.693 76.3297 145.415 75.6068C145.081 74.7355 144.745 73.8649 144.407 72.995C144.357 73.3948 144.307 73.7946 144.255 74.2065C144.112 74.2122 143.969 74.2178 143.822 74.2237C143.539 74.2386 143.539 74.2386 143.249 74.2538C142.969 74.267 142.969 74.267 142.683 74.2805C141.796 74.4045 141.131 74.7666 140.503 75.4105C140.086 76.0729 140.179 76.8739 140.185 77.6317C140.183 77.8153 140.181 77.9989 140.179 78.1881C140.173 78.7729 140.174 79.3575 140.174 79.9424C140.172 80.3395 140.168 80.7367 140.165 81.1338C140.157 82.106 140.155 83.0781 140.155 84.0503C139.454 84.0503 138.752 84.0503 138.029 84.0503C138.029 80.1521 138.029 76.254 138.029 72.2378C138.731 72.2378 139.433 72.2378 140.155 72.2378C140.205 72.6376 140.256 73.0374 140.307 73.4493C140.388 73.3763 140.468 73.3033 140.552 73.2281C140.659 73.1324 140.766 73.0367 140.877 72.9382C140.982 72.8433 141.088 72.7484 141.197 72.6507C142.389 71.6916 144.096 72.0685 145.544 72.1638Z" fill="white"/>
<path d="M76.5312 72.0861C76.9568 72.4198 77.3574 72.7703 77.7459 73.1462C77.7741 72.851 77.7741 72.851 77.8029 72.5499C77.8349 72.2145 77.8349 72.2145 77.8978 71.9347C78.3303 71.719 78.7068 71.7575 79.1885 71.7548C79.3655 71.7527 79.5424 71.7505 79.7247 71.7483C80.1755 71.7832 80.1755 71.7832 80.4792 72.0861C80.5094 72.5546 80.5206 73.0095 80.5185 73.4781C80.519 73.6224 80.5196 73.7667 80.5201 73.9154C80.5215 74.3941 80.5206 74.8729 80.5195 75.3516C80.5197 75.6832 80.52 76.0148 80.5204 76.3464C80.5209 77.042 80.5202 77.7376 80.5188 78.4332C80.5171 79.3265 80.5181 80.2198 80.5199 81.1131C80.521 81.798 80.5206 82.4829 80.5198 83.1678C80.5196 83.4973 80.5199 83.8267 80.5206 84.1561C80.5214 84.6159 80.5202 85.0757 80.5185 85.5355C80.5191 85.6727 80.5197 85.8099 80.5204 85.9513C80.5139 86.8929 80.5139 86.8929 80.1755 87.2304C79.6862 87.2653 79.6862 87.2653 79.1031 87.2587C78.9103 87.2578 78.7175 87.2568 78.5188 87.2558C78.0496 87.2304 78.0496 87.2304 77.8978 87.0789C77.8735 86.6644 77.8584 86.2533 77.8498 85.8384C77.8466 85.7142 77.8434 85.5901 77.8402 85.4621C77.8302 85.064 77.8213 84.6659 77.8124 84.2678C77.8058 83.9985 77.7992 83.7292 77.7925 83.46C77.7762 82.7985 77.7608 82.137 77.7459 81.4755C77.6547 81.5595 77.5634 81.6434 77.4694 81.7299C77.3483 81.8396 77.2271 81.9493 77.1024 82.0624C76.9829 82.1713 76.8634 82.2802 76.7404 82.3925C75.7628 83.1902 74.6456 83.223 73.4201 83.1952C72.3254 83.0847 71.2379 82.7353 70.4573 81.9299C70.4573 81.8299 70.4573 81.73 70.4573 81.627C70.3069 81.577 70.1566 81.527 70.0017 81.4755C68.7105 79.9126 68.6676 77.954 68.8237 76.023C68.9616 74.9247 69.2884 74.0097 70.0017 73.1462C70.1521 73.0962 70.3024 73.0463 70.4573 72.9948C70.5263 72.8528 70.5263 72.8528 70.5967 72.7079C70.8055 72.3025 71.0159 72.1945 71.4158 71.982C71.5311 71.9189 71.6464 71.8559 71.7652 71.7909C73.1855 71.1673 75.2353 71.2136 76.5312 72.0861ZM72.2794 74.5092C71.2974 75.7194 71.2789 76.9457 71.3684 78.4467C71.5494 79.2515 72.0117 79.9471 72.6709 80.445C73.5938 80.998 74.5725 80.9989 75.6201 80.8698C76.4475 80.626 76.9607 80.2271 77.4423 79.5068C77.5425 79.3569 77.6427 79.2069 77.7459 79.0525C78.0923 77.7525 78.0643 76.313 77.4423 75.115C76.8045 74.3811 76.1869 73.8068 75.1918 73.7106C74.0473 73.6755 73.1675 73.7379 72.2794 74.5092Z" fill="#FEFEFE"/>
<path d="M110.089 73.6007C111.025 74.3127 111.577 75.16 111.76 76.3266C111.789 76.7707 111.799 77.2146 111.808 77.6595C111.811 77.7861 111.814 77.9128 111.817 78.0433C111.827 78.446 111.836 78.8487 111.845 79.2514C111.852 79.5252 111.858 79.799 111.865 80.0728C111.881 80.7423 111.897 81.4119 111.912 82.0814C112.109 82.1033 112.306 82.1252 112.51 82.1477C113.107 82.214 113.107 82.214 113.278 82.3843C113.293 82.6869 113.298 82.99 113.297 83.293C113.298 83.5413 113.298 83.5413 113.298 83.7946C113.278 84.2016 113.278 84.2016 113.126 84.3531C112.754 84.3723 112.388 84.3811 112.016 84.3815C111.913 84.3833 111.81 84.3852 111.704 84.3871C111.14 84.3888 110.721 84.3611 110.241 84.0502C110.241 83.9502 110.241 83.8503 110.241 83.7473C110.141 83.7473 110.041 83.7473 109.938 83.7473C109.837 83.5474 109.737 83.3475 109.634 83.1415C109.531 83.254 109.427 83.3664 109.321 83.4823C108.27 84.5298 107.147 84.6988 105.719 84.7046C104.603 84.6859 103.788 84.3565 102.829 83.8041C102.105 83.0197 101.694 82.1495 101.652 81.0781C101.71 80.0167 102.061 79.2748 102.839 78.551C104.059 77.4995 105.548 77.6342 107.053 77.6612C107.274 77.6635 107.495 77.6656 107.716 77.6674C108.254 77.6724 108.792 77.6802 109.33 77.6896C109.29 77.4466 109.247 77.2039 109.203 76.9614C109.179 76.8262 109.155 76.691 109.131 76.5518C108.984 76.02 108.693 75.7555 108.267 75.418C108.192 75.343 108.192 75.343 108.115 75.2665C106.703 75.0959 106.703 75.0959 105.439 75.5884C105.078 76.0247 104.764 76.4486 104.471 76.9324C103.67 76.865 102.95 76.7683 102.193 76.4781C102.143 75.7613 102.204 75.3814 102.649 74.8122C104.538 72.8979 107.657 72.177 110.089 73.6007ZM104.471 80.2641C104.251 80.7038 104.263 80.9869 104.319 81.4757C104.575 81.9173 104.868 82.3124 105.367 82.4831C106.367 82.6484 107.227 82.6068 108.115 82.0814C108.986 81.3262 109.238 80.7897 109.33 79.6584C108.691 79.6407 108.052 79.63 107.413 79.6205C107.233 79.6154 107.052 79.6104 106.866 79.6051C105.543 79.5815 105.543 79.5815 104.471 80.2641Z" fill="#FEFEFE"/>
<path d="M57.4173 71.4149C57.5844 71.414 57.5844 71.414 57.7548 71.4131C58.8578 71.436 59.7464 71.7563 60.739 72.2383C60.739 72.3383 60.739 72.4382 60.739 72.5412C60.8893 72.5912 61.0397 72.6412 61.1946 72.6927C61.1946 72.7926 61.1946 72.8926 61.1946 72.9955C61.2948 72.9955 61.395 72.9955 61.4983 72.9955C62.0176 73.9755 62.1966 74.7805 62.1982 75.883C62.2007 76.0223 62.2032 76.1615 62.2058 76.305C62.2131 76.7447 62.2164 77.1843 62.2195 77.624C62.2238 77.9242 62.2284 78.2244 62.2332 78.5247C62.2443 79.2561 62.2519 79.9876 62.2575 80.7191C62.7085 80.7191 63.1595 80.7191 63.6241 80.7191C63.6282 81.0441 63.6312 81.369 63.6336 81.694C63.6354 81.875 63.6371 82.0559 63.6389 82.2424C63.6241 82.6878 63.6241 82.6878 63.4723 82.8393C63.131 82.8584 62.7891 82.8659 62.4473 82.8677C62.2602 82.8698 62.073 82.872 61.8802 82.8742C61.3674 82.8407 61.0355 82.7814 60.5872 82.5364C60.3119 82.0631 60.3119 82.0631 60.1316 81.6278C60.0471 81.699 59.9625 81.7703 59.8754 81.8437C58.3632 83.0742 57.2399 83.2923 55.2725 83.1422C54.2059 82.9705 53.3933 82.4437 52.6911 81.6278C52.2598 80.9303 52.1736 80.3981 52.1786 79.5833C52.1774 79.3912 52.1763 79.1991 52.175 79.0012C52.2389 78.4168 52.3962 78.043 52.6911 77.5388C52.7913 77.5388 52.8915 77.5388 52.9948 77.5388C53.0449 77.3889 53.095 77.239 53.1466 77.0845C53.4776 76.8798 53.4776 76.8798 53.8869 76.6869C54.0883 76.5903 54.0883 76.5903 54.2938 76.4917C54.9519 76.2003 55.4444 76.158 56.1616 76.161C56.3123 76.1614 56.3123 76.1614 56.4661 76.1617C56.7863 76.1625 57.1066 76.1644 57.4268 76.1664C57.6442 76.1671 57.8616 76.1678 58.079 76.1684C58.6114 76.1701 59.1437 76.1727 59.6761 76.1758C59.6577 75.9578 59.6376 75.7399 59.6168 75.5221C59.6003 75.3401 59.6003 75.3401 59.5834 75.1544C59.4962 74.6511 59.29 74.3967 58.9168 74.0556C58.026 73.5226 56.8542 73.7049 55.8799 73.9042C55.8799 74.0041 55.8799 74.1041 55.8799 74.2071C55.7296 74.307 55.5792 74.407 55.4243 74.51C55.263 74.8079 55.1098 75.1106 54.9688 75.4186C54.1799 75.4678 53.3573 75.4391 52.6911 74.9643C52.5541 74.6153 52.5541 74.6153 52.5392 74.2071C53.0533 73.0393 53.9711 72.289 55.1207 71.784C55.8888 71.5223 56.6093 71.4178 57.4173 71.4149ZM54.9688 78.5989C54.7123 79.1515 54.6242 79.4794 54.76 80.0755C55.0916 80.6166 55.4347 80.8235 56.0317 81.022C57.0716 81.1343 57.9033 81.0309 58.765 80.4162C59.474 79.6719 59.6927 79.1603 59.6761 78.1446C59.0909 78.1313 58.5057 78.1233 57.9203 78.1162C57.7554 78.1124 57.5905 78.1086 57.4206 78.1046C56.4892 78.0962 55.7769 78.1134 54.9688 78.5989Z" fill="#FEFEFE"/>
<path d="M130.219 72.0203C130.339 72.0188 130.459 72.0172 130.583 72.0156C132.112 72.0382 133.287 72.541 134.385 73.601C135.736 75.1572 135.752 76.6991 135.752 78.75C131.467 78.825 131.467 78.825 127.096 78.9015C127.473 80.6979 127.473 80.6979 128.566 81.9771C129.436 82.4973 130.361 82.501 131.348 82.3847C131.742 82.2698 132.045 82.1244 132.411 81.9303C132.561 81.8804 132.712 81.8304 132.867 81.7789C133.022 81.4613 133.022 81.4613 133.123 81.0879C133.189 80.8662 133.254 80.6444 133.322 80.4159C134.074 80.4159 134.825 80.4159 135.6 80.4159C135.356 81.7539 134.905 82.6212 133.846 83.5033C132.432 84.4311 130.71 84.543 129.079 84.2818C127.648 83.95 126.376 83.1815 125.578 81.9303C125.113 81.0074 124.724 80.0935 124.667 79.0529C124.659 78.9342 124.652 78.8155 124.644 78.6932C124.573 76.7475 124.988 74.9161 126.309 73.4454C127.476 72.3336 128.642 72.036 130.219 72.0203ZM127.704 74.964C127.374 75.601 127.096 76.2099 127.096 76.9327C129.201 76.9327 131.306 76.9327 133.474 76.9327C133.04 75.2599 133.04 75.2599 131.87 74.1594C130.406 73.4425 128.785 73.6433 127.704 74.964Z" fill="white"/>
<path d="M24.139 71.7492C24.316 71.7513 24.4929 71.7535 24.6752 71.7557C24.9407 71.7571 24.9407 71.7571 25.2114 71.7586C25.6622 71.7841 25.6622 71.7841 25.9659 71.9355C25.9673 72.0619 25.9673 72.0619 25.9686 72.1908C25.9784 73.0729 25.9912 73.9549 26.0058 74.837C26.0108 75.1655 26.0151 75.4941 26.0185 75.8227C26.0237 76.2968 26.0316 76.7708 26.0401 77.2449C26.041 77.3902 26.042 77.5356 26.043 77.6853C26.0625 78.5901 26.1552 79.447 26.5733 80.2648C26.9359 80.5107 26.9359 80.5107 27.3326 80.5677C27.5581 80.6427 27.5581 80.6427 27.7881 80.7192C28.6751 80.815 29.4681 80.7813 30.2544 80.3352C31.0281 79.6922 31.3019 78.8036 31.4324 77.8418C31.4606 77.3817 31.4711 76.9218 31.4805 76.461C31.4836 76.3312 31.4868 76.2014 31.4901 76.0677C31.4999 75.6557 31.5089 75.2438 31.5179 74.8318C31.5244 74.5514 31.531 74.271 31.5377 73.9906C31.5539 73.3056 31.5693 72.6206 31.5843 71.9355C32.0163 71.7201 32.3938 71.7526 32.875 71.7462C33.0519 71.7423 33.2289 71.7384 33.4112 71.7344C33.6344 71.759 33.6344 71.759 33.862 71.7841C34.2252 72.3274 34.2041 72.5687 34.205 73.2142C34.2055 73.3125 34.2061 73.4108 34.2066 73.5121C34.2079 73.8369 34.2071 74.1616 34.206 74.4864C34.2062 74.7121 34.2065 74.9379 34.2069 75.1636C34.2074 75.6367 34.2067 76.1098 34.2053 76.5828C34.2036 77.1894 34.2046 77.7959 34.2064 78.4024C34.2075 78.8685 34.2071 79.3347 34.2063 79.8008C34.2061 80.0245 34.2064 80.2481 34.2071 80.4718C34.2079 80.7843 34.2067 81.0967 34.205 81.4092C34.2048 81.5871 34.2045 81.765 34.2043 81.9482C34.1657 82.385 34.1657 82.385 33.862 82.8394C33.4112 82.889 33.4112 82.889 32.875 82.8772C32.698 82.8749 32.5211 82.8725 32.3388 82.8701C31.888 82.8394 31.888 82.8394 31.5843 82.6879C31.5214 82.3418 31.5214 82.3418 31.4894 81.9212C31.478 81.782 31.4667 81.6429 31.455 81.4994C31.4475 81.3919 31.4401 81.2843 31.4324 81.1735C31.3322 81.3234 31.232 81.4733 31.1288 81.6278C31.0285 81.6278 30.9283 81.6278 30.8251 81.6278C30.7499 81.8527 30.7499 81.8527 30.6732 82.0821C30.573 82.0821 30.4728 82.0821 30.3695 82.0821C30.3695 82.1821 30.3695 82.282 30.3695 82.385C29.2226 83.1638 27.9132 83.1702 26.5733 82.9908C25.4435 82.6805 24.6337 81.9884 23.9919 81.022C23.5652 80.1708 23.367 79.2803 23.3625 78.3327C23.3615 78.1942 23.3605 78.0558 23.3595 77.9131C23.3594 77.7656 23.3592 77.6181 23.359 77.4661C23.3585 77.3133 23.358 77.1604 23.3575 77.003C23.3567 76.6808 23.3564 76.3586 23.3564 76.0365C23.3561 75.5419 23.3533 75.0474 23.3504 74.5529C23.35 74.2399 23.3497 73.9268 23.3495 73.6138C23.3484 73.4654 23.3473 73.3169 23.3462 73.164C23.3467 73.027 23.3472 72.89 23.3476 72.7488C23.3474 72.628 23.3472 72.5072 23.347 72.3827C23.4143 71.8522 23.633 71.7883 24.139 71.7492Z" fill="#FEFEFE"/>
<path d="M13.209 67.2198C13.3715 67.2203 13.3715 67.2203 13.5372 67.2208C13.6508 67.2205 13.7644 67.2202 13.8814 67.22C14.2587 67.2193 14.636 67.2197 15.0133 67.2202C15.2745 67.2201 15.5357 67.22 15.7969 67.2198C16.3452 67.2196 16.8935 67.2199 17.4418 67.2206C18.1456 67.2215 18.8494 67.221 19.5533 67.2201C20.0929 67.2195 20.6326 67.2197 21.1723 67.2201C21.4318 67.2202 21.6914 67.2201 21.9509 67.2197C22.3134 67.2193 22.6759 67.2199 23.0384 67.2208C23.1464 67.2205 23.2544 67.2201 23.3657 67.2198C24.1091 67.2231 24.1091 67.2231 24.4475 67.3918C24.4557 67.7136 24.4616 68.0354 24.4665 68.3572C24.47 68.5365 24.4735 68.7157 24.4771 68.9003C24.4475 69.3605 24.4475 69.3605 24.1438 69.6634C23.6911 69.6978 23.6911 69.6978 23.1176 69.693C23.0169 69.6926 22.9163 69.6922 22.8125 69.6917C22.4907 69.69 22.1689 69.6862 21.8471 69.6824C21.629 69.6808 21.4109 69.6795 21.1928 69.6782C20.658 69.6749 20.1232 69.6697 19.5883 69.6634C19.5887 69.8263 19.589 69.9891 19.5894 70.1569C19.5924 71.6879 19.5947 73.2189 19.5962 74.75C19.597 75.5372 19.5981 76.3244 19.5998 77.1116C19.6014 77.8706 19.6024 78.6296 19.6028 79.3887C19.603 79.6789 19.6036 79.9692 19.6044 80.2595C19.6055 80.6645 19.6057 81.0696 19.6056 81.4747C19.6061 81.596 19.6067 81.7172 19.6072 81.8421C19.6057 82.6702 19.6057 82.6702 19.4365 82.8389C19.0857 82.8579 18.7343 82.8655 18.3831 82.8673C18.1906 82.8695 17.9982 82.8716 17.8 82.8738C17.3106 82.8389 17.3106 82.8389 17.0069 82.536C16.9784 82.1255 16.9687 81.7306 16.9725 81.32C16.9724 81.1944 16.9724 81.0688 16.9723 80.9394C16.9725 80.5231 16.9749 80.1069 16.9773 79.6906C16.9778 79.4024 16.9783 79.1142 16.9786 78.826C16.9797 78.0667 16.9827 77.3073 16.9861 76.548C16.9892 75.7735 16.9906 74.999 16.9921 74.2245C16.9954 72.7041 17.0006 71.1838 17.0069 69.6634C16.8092 69.6658 16.8092 69.6658 16.6075 69.6682C16.1191 69.6734 15.6307 69.6772 15.1422 69.6801C14.9307 69.6816 14.7192 69.6837 14.5077 69.6863C14.2039 69.69 13.9001 69.6915 13.5963 69.693C13.4134 69.6946 13.2305 69.6962 13.0421 69.6978C12.6034 69.6634 12.6034 69.6634 12.2997 69.3605C12.2647 68.9056 12.2647 68.9056 12.2712 68.3667C12.2727 68.0994 12.2727 68.0994 12.2742 67.8266C12.3163 67.1091 12.5543 67.2227 13.209 67.2198Z" fill="#FEFEFE"/>
<path d="M120.263 67.8457C121.015 67.8457 121.767 67.8457 122.541 67.8457C122.541 73.1931 122.541 78.5406 122.541 84.05C121.789 84.05 121.038 84.05 120.263 84.05C120.263 78.7026 120.263 73.3552 120.263 67.8457Z" fill="white"/>
<path d="M115.1 67.8457C115.852 67.8457 116.604 67.8457 117.378 67.8457C117.378 73.1931 117.378 78.5406 117.378 84.05C116.627 84.05 115.875 84.05 115.1 84.05C115.1 78.7026 115.1 73.3552 115.1 67.8457Z" fill="white"/>
<path d="M65.4653 71.7637C65.6595 71.7641 65.8537 71.7645 66.0537 71.7649C66.2479 71.7645 66.4421 71.7641 66.6421 71.7637C67.1166 71.7838 67.1166 71.7838 67.2685 71.9352C67.2836 72.2689 67.2879 72.603 67.2881 72.9371C67.2884 73.0417 67.2887 73.1464 67.2889 73.2542C67.2896 73.6017 67.2892 73.9492 67.2887 74.2968C67.2888 74.5373 67.2889 74.7778 67.2891 75.0183C67.2893 75.5229 67.289 76.0276 67.2883 76.5323C67.2874 77.1806 67.2879 77.8289 67.2888 78.4772C67.2894 78.974 67.2892 79.4708 67.2888 79.9676C67.2887 80.2067 67.2888 80.4458 67.2892 80.6849C67.2896 81.0186 67.289 81.3522 67.2881 81.6858C67.288 81.876 67.2879 82.0662 67.2878 82.2622C67.2685 82.6876 67.2685 82.6876 67.1166 82.8391C66.7626 82.8541 66.4081 82.8587 66.0537 82.858C65.8595 82.8584 65.6654 82.8588 65.4653 82.8592C64.9908 82.8391 64.9908 82.8391 64.8389 82.6876C64.8238 82.354 64.8195 82.0198 64.8193 81.6858C64.819 81.5812 64.8188 81.4765 64.8185 81.3687C64.8178 81.0211 64.8183 80.6736 64.8188 80.3261C64.8187 80.0856 64.8185 79.8451 64.8183 79.6046C64.8181 79.0999 64.8184 78.5953 64.8191 78.0906C64.82 77.4423 64.8195 76.794 64.8186 76.1456C64.818 75.6488 64.8182 75.1521 64.8186 74.6553C64.8187 74.4161 64.8186 74.177 64.8182 73.9379C64.8179 73.6043 64.8184 73.2707 64.8193 72.9371C64.8194 72.7468 64.8195 72.5566 64.8196 72.3606C64.8468 71.7618 64.8575 71.7894 65.4653 71.7637Z" fill="#FEFEFE"/>
<path d="M210.005 75.873C209.955 76.073 209.905 76.2729 209.853 76.4788C209.963 76.4288 210.073 76.3789 210.186 76.3274C210.615 76.175 210.921 76.1502 211.372 76.1759C211.428 77.0489 211.33 77.8152 210.916 78.599C210.666 78.844 210.402 79.045 210.122 79.2545C209.697 79.6548 209.507 80.1476 209.282 80.6784C208.992 81.2078 208.622 81.4168 208.079 81.6562C207.445 81.8112 206.857 81.8052 206.209 81.7793C206.105 81.5048 206.105 81.5048 206.057 81.1735C206.212 80.9197 206.212 80.9197 206.513 80.7192C206.989 80.6086 206.989 80.6086 207.528 80.5394C207.707 80.5154 207.886 80.4913 208.071 80.4666C208.208 80.45 208.345 80.4334 208.487 80.4163C208.582 80.0485 208.582 80.0485 208.639 79.6591C208.567 79.5904 208.495 79.5217 208.42 79.4509C208.183 79.2048 208.183 79.2048 208.136 78.6653C208.183 78.1447 208.183 78.1447 208.487 77.8418C209.071 77.8095 209.598 77.8147 210.157 77.9932C210.157 77.7933 210.157 77.5934 210.157 77.3875C210.007 77.3875 209.856 77.3875 209.702 77.3875C209.651 77.2375 209.601 77.0876 209.55 76.9331C209.5 77.0331 209.449 77.133 209.398 77.236C209.197 77.1861 208.997 77.1361 208.79 77.0846C208.752 76.7344 208.752 76.7344 208.79 76.3274C209.218 75.8853 209.367 75.873 210.005 75.873Z" fill="#FEFEFE"/>
<path d="M66.8129 67.2399C67.2021 67.4482 67.2021 67.4482 67.4203 67.6943C67.4203 67.7942 67.4203 67.8942 67.4203 67.9972C67.5206 67.9972 67.6208 67.9972 67.724 67.9972C67.8396 69.4602 67.8396 69.4602 67.4488 70.1457C66.737 70.5494 66.0947 70.5532 65.2945 70.4202C64.8386 70.1475 64.6185 69.9805 64.3834 69.5116C64.369 69.2848 64.3637 69.0573 64.3644 68.8301C64.364 68.7098 64.3636 68.5896 64.3632 68.4657C64.3834 68.1486 64.3834 68.1486 64.5352 67.8457C64.6355 67.8457 64.7357 67.8457 64.8389 67.8457C64.889 67.6958 64.9391 67.5459 64.9908 67.3914C65.6042 67.1875 66.1712 67.1729 66.8129 67.2399Z" fill="#FEFEFE"/>
<path d="M40.0878 59.0621C40.2381 59.162 40.3884 59.262 40.5433 59.365C40.5433 59.4649 40.5433 59.5649 40.5433 59.6678C40.6435 59.6678 40.7438 59.6678 40.847 59.6678C40.9819 61.0904 40.9819 61.0904 40.6922 61.6129C40.2582 62.0231 39.8189 62.1435 39.2431 62.1761C38.6021 62.1395 38.2515 61.9667 37.8101 61.4852C37.5804 60.7982 37.5535 60.2182 37.8385 59.5448C38.485 58.7666 39.1739 58.8857 40.0878 59.0621Z" fill="#FEFEFE"/>
<path d="M36.2916 59.0625C36.7162 59.393 36.8639 59.6168 36.9553 60.1462C36.9896 60.7691 36.9513 61.0991 36.6142 61.637C36.081 62.1375 35.6744 62.1497 34.9647 62.1463C34.4245 62.0598 34.1878 61.7504 33.862 61.3341C33.8119 61.2841 33.7618 61.2341 33.7101 61.1827C33.6429 59.8194 33.6429 59.8194 34.0138 59.3654C34.7576 58.8407 35.4385 58.8042 36.2916 59.0625Z" fill="#FEFEFE"/>
<path d="M22.1697 42.2524C22.573 42.5397 22.7122 42.7287 22.929 43.1611C22.9822 43.9709 22.9964 44.4678 22.4734 45.1298C21.877 45.4273 21.1497 45.3532 20.4994 45.2813C20.0962 44.994 19.9569 44.805 19.7402 44.3726C19.6433 43.6702 19.6488 43.1636 20.0154 42.5459C20.7211 42.118 21.3638 42.115 22.1697 42.2524Z" fill="#FEFEFE"/>
<path d="M26.1178 42.2519C26.5164 42.4696 26.5164 42.4696 26.7252 42.8577C26.9005 43.5222 26.9624 44.03 26.6777 44.6655C26.1818 45.2701 26.1818 45.2701 25.7494 45.3423C24.6176 45.379 24.6176 45.379 24.1687 45.1199C23.7902 44.7184 23.6357 44.3022 23.5933 43.7664C23.6357 43.2307 23.789 42.8135 24.1699 42.414C24.7717 42.0626 25.4523 42.1364 26.1178 42.2519Z" fill="#FEFEFE"/>
<path d="M104.319 43.4644C104.746 43.736 105.004 43.9216 105.23 44.3731C105.305 45.1177 105.304 45.448 104.946 46.1146C104.569 46.5063 104.248 46.5678 103.712 46.5974C103.168 46.5601 102.955 46.4945 102.478 46.1998C102.096 45.5772 102.05 45.0858 102.193 44.3731C102.742 43.4974 103.303 43.3188 104.319 43.4644Z" fill="white"/>
<path d="M205.298 76.0244C205.298 76.1743 205.298 76.3243 205.298 76.4787C205.198 76.4787 205.097 76.4787 204.994 76.4787C204.969 76.6389 204.969 76.6389 204.943 76.8023C204.833 77.2774 204.661 77.6753 204.453 78.1162C204.384 78.264 204.315 78.4118 204.244 78.564C204.191 78.6755 204.138 78.787 204.083 78.9018C204.384 78.8019 204.684 78.7019 204.994 78.5989C204.989 78.5041 204.984 78.4092 204.978 78.3114C204.974 78.1877 204.97 78.0639 204.966 77.9364C204.96 77.8134 204.955 77.6904 204.95 77.5637C204.964 77.4555 204.979 77.3474 204.994 77.236C205.45 76.9331 205.45 76.9331 205.858 76.9899C205.974 77.0211 206.09 77.0523 206.209 77.0845C206.35 77.5317 206.394 77.7633 206.209 78.2014C205.636 78.9514 204.963 79.7307 204.083 80.1134C203.59 80.1512 203.59 80.1512 203.172 80.1134C203.02 79.9619 203.02 79.9619 202.973 79.4224C202.989 78.2776 203.697 77.3475 204.387 76.4787C204.487 76.4787 204.587 76.4787 204.691 76.4787C204.691 76.3788 204.691 76.2788 204.691 76.1759C204.994 76.0244 204.994 76.0244 205.298 76.0244Z" fill="#FEFEFE"/>
<path d="M207.727 76.9326C207.778 76.9326 207.828 76.9326 207.879 76.9326C207.95 77.7982 207.8 78.3714 207.272 79.0528C206.963 79.3822 206.645 79.6972 206.316 80.007C206.044 80.2498 206.044 80.2498 205.905 80.5672C205.805 80.5672 205.705 80.5672 205.602 80.5672C205.602 80.6672 205.602 80.7671 205.602 80.8701C205.501 80.8701 205.401 80.8701 205.298 80.8701C205.298 80.9701 205.298 81.07 205.298 81.173C205.198 81.173 205.097 81.173 204.994 81.173C204.944 81.3229 204.894 81.4729 204.842 81.6273C204.742 81.6273 204.642 81.6273 204.539 81.6273C204.488 81.7737 204.488 81.7737 204.435 81.9231C204.235 82.2331 204.235 82.2331 203.873 82.3254C203.736 82.3324 203.598 82.3394 203.457 82.3467C203.319 82.3553 203.18 82.3639 203.038 82.3727C202.932 82.3766 202.826 82.3805 202.717 82.3845C202.717 82.2846 202.717 82.1846 202.717 82.0817C203.242 81.6273 203.242 81.6273 203.628 81.6273C203.628 81.5274 203.628 81.4274 203.628 81.3244C203.84 81.1269 203.84 81.1269 204.14 80.889C204.846 80.2921 205.415 79.6065 205.996 78.8937C206.548 78.2185 207.11 77.5488 207.727 76.9326Z" fill="#FEFEFE"/>
<path d="M100.675 73.4492C100.725 73.4492 100.775 73.4492 100.827 73.4492C100.827 73.949 100.827 74.4487 100.827 74.9636C100.777 74.9636 100.727 74.9636 100.675 74.9636C100.675 74.4639 100.675 73.9641 100.675 73.4492Z" fill="#FEFEFE"/>
</svg>
