<svg width="74" height="28" viewBox="0 0 74 28" fill="none" xmlns="http://www.w3.org/2000/svg">
<path d="M9.97891 25.4471L10.3161 27.2792C9.56142 27.4239 8.86294 27.5364 8.22065 27.6167C7.59443 27.7132 6.99228 27.7614 6.41423 27.7614C5.20994 27.7614 4.1582 27.5685 3.259 27.1828C2.37585 26.8132 1.69342 26.2587 1.21171 25.5194C0.729994 24.7962 0.489136 23.9284 0.489136 22.9159C0.489136 22.0801 0.641678 21.3167 0.946764 20.6257C1.26791 19.9507 1.71751 19.3641 2.29556 18.8659C2.88968 18.3676 3.58816 17.99 4.39102 17.7328L4.99316 17.4676C5.58728 17.2266 6.18139 16.9533 6.77551 16.648C7.36962 16.3426 7.94768 15.9971 8.50968 15.6114C9.07168 15.2257 9.56945 14.7998 10.003 14.3337C10.4365 13.8676 10.7818 13.3694 11.0387 12.8391C11.2956 12.2926 11.4241 11.7141 11.4241 11.1033V9.63281L12.5802 11.4409C11.697 10.9587 10.8059 10.6051 9.90665 10.3801C9.00745 10.1391 8.14037 10.0185 7.3054 10.0185C6.47043 10.0185 5.60334 10.1391 4.70414 10.3801C3.82099 10.6051 2.93785 10.9587 2.05471 11.4409L3.21082 9.63281V11.1033C3.21082 11.6658 3.34731 12.2605 3.62028 12.8873C3.90931 13.5141 4.30271 14.1328 4.80048 14.7435C5.31431 15.3542 5.90842 15.9087 6.58282 16.4069C7.27328 16.9051 8.02797 17.3069 8.84688 17.6123C9.6658 17.9176 10.5168 18.0703 11.4 18.0703H14.9406V20.0712H11.6649C10.4124 20.0712 9.24028 19.8703 8.14839 19.4685C7.05651 19.0667 6.069 18.5364 5.18585 17.8775C4.30271 17.2025 3.53999 16.4712 2.89771 15.6837C2.27148 14.8801 1.78977 14.0846 1.45257 13.2971C1.11537 12.4935 0.946764 11.7623 0.946764 11.1033V9.68103C1.63722 9.31138 2.34374 9.00603 3.06631 8.76496C3.80494 8.50781 4.53554 8.31496 5.25811 8.18638C5.98068 8.05781 6.66311 7.99353 7.3054 7.99353C7.96374 7.99353 8.64617 8.05781 9.35268 8.18638C10.0753 8.31496 10.7978 8.50781 11.5204 8.76496C12.243 9.00603 12.9495 9.31138 13.6399 9.68103V11.1033C13.6399 12.0194 13.4473 12.8632 13.0619 13.6346C12.6926 14.39 12.2028 15.073 11.5927 15.6837C10.9825 16.2944 10.3081 16.8409 9.56945 17.323C8.84688 17.7891 8.13234 18.1828 7.42582 18.5042C7.26525 18.5685 7.05651 18.665 6.79959 18.7935C6.54268 18.906 6.27774 19.0266 6.00477 19.1551C5.7318 19.2676 5.48291 19.3641 5.25811 19.4444C5.04937 19.5248 4.92894 19.581 4.89683 19.6132C4.52751 19.79 4.17425 20.015 3.83705 20.2882C3.51591 20.5614 3.25096 20.9069 3.04222 21.3248C2.84954 21.7587 2.75319 22.281 2.75319 22.8917C2.75319 23.8239 3.05025 24.531 3.64436 25.0132C4.23848 25.5114 5.16177 25.7605 6.41423 25.7605C6.7996 25.7605 7.28131 25.7284 7.85936 25.6641C8.43742 25.6159 9.14394 25.5435 9.97891 25.4471ZM14.9406 20.0712V18.0703C15.0208 18.0703 15.0931 18.0944 15.1573 18.1426C15.2216 18.1908 15.2697 18.2551 15.3018 18.3355C15.334 18.4158 15.3581 18.5203 15.3741 18.6489C15.4062 18.7614 15.4223 18.898 15.4223 19.0587C15.4223 19.2033 15.4062 19.34 15.3741 19.4685C15.3581 19.5971 15.334 19.7096 15.3018 19.806C15.2697 19.8864 15.2216 19.9507 15.1573 19.9989C15.0931 20.0471 15.0208 20.0712 14.9406 20.0712ZM14.9321 20.0712V18.0703H19.0266L17.8705 18.9864V7.99353H20.1105V20.0712H14.9321ZM14.9321 20.0712C14.8357 20.0712 14.7554 20.0471 14.6912 19.9989C14.627 19.9507 14.5788 19.8864 14.5467 19.806C14.5146 19.7096 14.4905 19.5971 14.4744 19.4685C14.4584 19.34 14.4503 19.2033 14.4503 19.0587C14.4503 18.8498 14.4664 18.673 14.4985 18.5284C14.5146 18.3837 14.5627 18.2712 14.643 18.1909C14.7073 18.1105 14.8036 18.0703 14.9321 18.0703V20.0712ZM15.8714 24.6275V22.2891H18.0873V24.6275H15.8714ZM19.4602 24.6275V22.2891H21.6761V24.6275H19.4602ZM24.2561 25.5917C24.0474 25.5917 23.8306 25.5757 23.6058 25.5435C23.3649 25.5275 23.1241 25.5114 22.8832 25.4953L23.0759 23.4944C23.3168 23.5105 23.5416 23.5266 23.7503 23.5426C23.943 23.5587 24.1036 23.5667 24.232 23.5667C24.9546 23.5667 25.5327 23.2935 25.9662 22.7471C26.4158 22.2007 26.6406 21.4373 26.6406 20.4569V7.99353H28.9047V20.4569C28.9047 21.4694 28.7039 22.3614 28.3025 23.1328C27.9011 23.9042 27.3551 24.5069 26.6647 24.9408C25.9742 25.3748 25.1714 25.5917 24.2561 25.5917ZM35.0777 20.0712V18.0703H37.968V20.0712H35.0777ZM32.8377 20.0712V2.85871H35.0777V20.0712H32.8377ZM37.968 20.0712V18.0703C38.0482 18.0703 38.1205 18.0944 38.1847 18.1426C38.2489 18.1908 38.2971 18.2551 38.3292 18.3355C38.3614 18.4158 38.3854 18.5203 38.4015 18.6489C38.4336 18.7614 38.4497 18.898 38.4497 19.0587C38.4497 19.2033 38.4336 19.34 38.4015 19.4685C38.3854 19.5971 38.3614 19.7096 38.3292 19.806C38.2971 19.8864 38.2489 19.9507 38.1847 19.9989C38.1205 20.0471 38.0482 20.0712 37.968 20.0712ZM56.6498 20.0712V18.0703H59.227V20.0712H56.6498ZM37.9593 20.0712C37.8629 20.0712 37.7827 20.0471 37.7184 19.9989C37.6542 19.9507 37.606 19.8864 37.5739 19.806C37.5418 19.7096 37.5177 19.5971 37.5016 19.4685C37.4856 19.34 37.4776 19.2033 37.4776 19.0587C37.4776 18.8498 37.4936 18.673 37.5257 18.5284C37.5418 18.3837 37.59 18.2712 37.6703 18.1909C37.7345 18.1105 37.8308 18.0703 37.9593 18.0703V20.0712ZM51.0378 20.0712C50.4598 20.0712 49.8897 19.9667 49.3277 19.7578C48.7818 19.5328 48.2599 19.1873 47.7622 18.7212L49.1832 17.2266C49.5365 17.5158 49.8576 17.7328 50.1466 17.8775C50.4357 18.006 50.7327 18.0703 51.0378 18.0703H55.3973L54.4098 19.0346V13.3935C54.4098 13.1042 54.3777 12.7025 54.3135 12.1882C54.2653 11.6578 54.185 11.0632 54.0726 10.4042C53.9763 9.72924 53.8558 9.0462 53.7113 8.35513L55.9031 7.99353C56.0155 8.5721 56.1279 9.20692 56.2403 9.89799C56.3527 10.5891 56.4491 11.248 56.5294 11.8748C56.6097 12.5016 56.6498 13.0078 56.6498 13.3935V20.0712H51.0378ZM37.9593 20.0712V18.0703H41.4758L40.9218 18.6248V10.4283H43.1618V20.0712H37.9593ZM43.1618 20.0712V18.0703H45.6667C46.2126 18.0703 46.6221 17.99 46.8951 17.8292C47.1681 17.6685 47.3607 17.3471 47.4731 16.865C47.5855 16.3828 47.6417 15.6757 47.6417 14.7435V9.22299H49.9058V14.7435C49.9058 16.0453 49.7533 17.09 49.4482 17.8775C49.1591 18.665 48.7095 19.2275 48.0994 19.565C47.4892 19.9025 46.6783 20.0712 45.6667 20.0712H43.1618ZM59.227 20.0712V18.0703C59.3233 18.0703 59.4036 18.0944 59.4678 18.1426C59.532 18.1908 59.5802 18.2551 59.6123 18.3355C59.6445 18.4158 59.6685 18.5203 59.6846 18.6489C59.7007 18.7614 59.7087 18.898 59.7087 19.0587C59.7087 19.2033 59.7007 19.34 59.6846 19.4685C59.6685 19.5971 59.6445 19.7096 59.6123 19.806C59.5802 19.8864 59.532 19.9507 59.4678 19.9989C59.4036 20.0471 59.3233 20.0712 59.227 20.0712ZM47.7622 2.4971V0.351562H49.7854V2.4971H47.7622ZM45.8594 5.82389V3.48549H48.0753V5.82389H45.8594ZM49.4482 5.82389V3.48549H51.664V5.82389H49.4482ZM59.2225 20.0712V18.0703H72.2052L70.7841 19.131V14.1409C70.7841 13.0801 70.6637 12.2525 70.4228 11.6578C70.198 11.0632 69.7966 10.6373 69.2185 10.3801C68.6405 10.123 67.8532 9.99442 66.8576 9.99442C66.1832 9.99442 65.5169 10.0426 64.8585 10.1391C64.2002 10.2355 63.6864 10.3641 63.317 10.5248L64.6899 9.17478C64.5936 9.54442 64.4972 10.0185 64.4009 10.5971C64.3046 11.1757 64.2243 11.8025 64.16 12.4775C64.0958 13.1364 64.0637 13.7953 64.0637 14.4542C64.0637 15.1132 64.0958 15.7641 64.16 16.4069C64.2243 17.0498 64.2965 17.6123 64.3768 18.0944C64.4571 18.5766 64.5213 18.906 64.5695 19.0828L62.4259 19.6855C62.3616 19.4766 62.2814 19.115 62.185 18.6007C62.1047 18.0864 62.0244 17.4676 61.9442 16.7444C61.8799 16.0212 61.8478 15.2578 61.8478 14.4542C61.8478 13.6667 61.8799 12.9034 61.9442 12.1641C62.0244 11.4087 62.1128 10.7257 62.2091 10.115C62.3215 9.50424 62.4259 9.01406 62.5222 8.64442C62.8915 8.49978 63.4616 8.35514 64.2323 8.21049C65.0191 8.06585 65.8942 7.99353 66.8576 7.99353C68.2225 7.99353 69.363 8.19442 70.2783 8.59621C71.2096 8.99799 71.9001 9.64889 72.3497 10.5489C72.8153 11.4328 73.0482 12.6301 73.0482 14.1409V20.0712H59.2225ZM59.2225 20.0712C59.1261 20.0712 59.0458 20.0471 58.9816 19.9989C58.9174 19.9507 58.8692 19.8864 58.8371 19.806C58.805 19.7096 58.7809 19.5971 58.7648 19.4685C58.7488 19.34 58.7408 19.2033 58.7408 19.0587C58.7408 18.8498 58.7568 18.673 58.7889 18.5284C58.805 18.3837 58.8532 18.2712 58.9334 18.1909C58.9977 18.1105 59.094 18.0703 59.2225 18.0703V20.0712Z" fill="white"/>
</svg>
