<svg width="295" height="219" viewBox="0 0 295 219" fill="none" xmlns="http://www.w3.org/2000/svg">
<path d="M105.376 0.670942C115.566 0.587116 147.384 -1.92151 154.887 3.33569C166.811 11.6918 158.375 48.058 161.179 61.8782C161.7 64.4475 162.705 66.9796 164.977 68.3454C176.732 75.4103 208.599 63.7669 225.056 74.945C230.416 93.5532 223.716 120.042 229.427 135.697C234.505 142.92 272.188 138.727 282.206 140.242C285.189 140.694 288.158 142.091 290.909 143.338C291.911 145.687 292.783 148.375 293.28 150.898C295.439 161.847 296.473 195.851 290.77 204.698C288.763 207.81 286.133 209.337 282.639 209.999C273.452 211.741 237.088 212.443 230.292 207.401C221.622 200.969 227.697 161.745 225.561 150.033C221.93 130.13 176.301 147.306 163.067 137.864C156.565 130.336 159.198 104.637 159.266 94.4211C159.36 89.7326 160.065 83.0761 158.314 78.7333C157.156 75.8652 155.076 73.3216 152.268 72.1603C145.265 69.2648 107.676 70.0673 100.654 73.3181C88.015 79.1705 98.6584 131.745 93.0002 145.619C90.3705 152.066 15.1209 215.694 7.40146 219C5.85879 218.578 5.22442 218.353 4.16736 217.034C-1.96231 209.385 0.221402 164.018 1.13442 152.719C10.3722 137.628 48.3393 107.783 63.2206 95.5151C71.7523 88.481 82.0536 81.1681 88.1294 71.6546C98.91 54.7752 86.1182 17.8264 95.8313 4.90147C98.327 1.58034 101.628 1.19236 105.376 0.670942Z" fill="url(#paint0_linear_2171_3830)" fill-opacity="0.5"/>
<defs>
<linearGradient id="paint0_linear_2171_3830" x1="321.192" y1="218.52" x2="32.2876" y2="218.52" gradientUnits="userSpaceOnUse">
<stop stop-color="#4D2DB3"/>
<stop offset="0.535" stop-color="#A380FF"/>
<stop offset="1" stop-color="#5CE3D9"/>
</linearGradient>
</defs>
</svg>
