<svg width="366" height="470" viewBox="0 0 366 470" fill="none" xmlns="http://www.w3.org/2000/svg">
<g clip-path="url(#clip0_783_235)">
<rect width="366" height="470" rx="20" fill="#57E3D8"/>
<rect x="29.7568" y="177" width="306.907" height="306.907" rx="10.2492" fill="white" fill-opacity="0.14"/>
<g filter="url(#filter0_d_783_235)">
<rect x="36.0186" y="183.263" width="294.38" height="294.38" rx="10.2492" fill="white" fill-opacity="0.8" shape-rendering="crispEdges"/>
</g>
<g filter="url(#filter1_d_783_235)">
<rect x="62.7808" y="274.937" width="241.426" height="38.1498" rx="10.2492" fill="white"/>
<rect x="63.0655" y="275.222" width="240.856" height="37.5804" rx="9.96448" stroke="#ECECEC" stroke-width="0.569399"/>
</g>
<g filter="url(#filter2_d_783_235)">
<rect x="96.0908" y="287.056" width="194.045" height="5.91833" rx="2.95916" fill="#F4F4F4"/>
</g>
<g filter="url(#filter3_d_783_235)">
<rect x="179.161" y="297.481" width="110.946" height="5.91833" rx="2.95916" fill="#F4F4F4"/>
</g>
<g filter="url(#filter4_d_783_235)">
<rect x="62.781" y="366.041" width="241.426" height="38.1498" rx="10.2492" fill="white"/>
<rect x="63.0657" y="366.326" width="240.856" height="37.5804" rx="9.96448" stroke="#ECECEC" stroke-width="0.569399"/>
</g>
<g filter="url(#filter5_d_783_235)">
<rect x="62.781" y="411.593" width="241.426" height="38.1498" rx="10.2492" fill="white"/>
<rect x="63.0657" y="411.878" width="240.856" height="37.5804" rx="9.96448" stroke="#ECECEC" stroke-width="0.569399"/>
</g>
<g filter="url(#filter6_d_783_235)">
<rect x="96.0908" y="376.86" width="194.045" height="5.91833" rx="2.95916" fill="#F4F4F4"/>
</g>
<g filter="url(#filter7_d_783_235)">
<rect x="96.0908" y="422.412" width="194.045" height="5.91833" rx="2.95916" fill="#F4F4F4"/>
</g>
<g filter="url(#filter8_d_783_235)">
<rect x="179.161" y="387.284" width="110.946" height="5.91833" rx="2.95916" fill="#F4F4F4"/>
</g>
<g filter="url(#filter9_d_783_235)">
<rect x="179.161" y="432.836" width="110.946" height="5.91833" rx="2.95916" fill="#F4F4F4"/>
</g>
<g filter="url(#filter10_d_783_235)">
<rect x="71.2646" y="331.649" width="241.426" height="38.1498" rx="10.2492" transform="rotate(-5.31954 71.2646 331.649)" fill="white"/>
<rect x="71.5745" y="331.906" width="240.856" height="37.5804" rx="9.96448" transform="rotate(-5.31954 71.5745 331.906)" stroke="#ECECEC" stroke-width="0.569399"/>
</g>
<g filter="url(#filter11_d_783_235)">
<rect x="95.7947" y="337.649" width="194.045" height="5.91833" rx="2.95916" transform="rotate(-5.31954 95.7947 337.649)" fill="#F4F4F4"/>
</g>
<g filter="url(#filter12_d_783_235)">
<rect x="179.204" y="341.883" width="110.946" height="5.91833" rx="2.95916" transform="rotate(-5.31954 179.204 341.883)" fill="#F4F4F4"/>
</g>
<g filter="url(#filter13_d_783_235)">
<rect width="96.2499" height="71.2168" rx="10.2492" transform="matrix(0.999459 0.0328806 -0.0193728 0.999812 240 195)" fill="white"/>
</g>
<path d="M297.193 233.797C297.243 231.277 298.431 229.404 300.773 228.062C299.529 226.182 297.605 225.117 295.036 224.853C292.604 224.599 289.899 226.145 288.924 226.12C287.894 226.094 285.567 224.682 283.714 224.635C279.881 224.6 275.734 227.49 275.58 233.579C275.535 235.378 275.817 237.244 276.428 239.179C277.243 241.72 280.258 247.979 283.57 247.96C285.301 247.963 286.553 246.806 288.804 246.863C290.988 246.918 292.089 248.176 294.018 248.225C297.356 248.261 300.368 242.718 301.269 240.213C296.847 237.992 297.19 233.927 297.193 233.797ZM293.593 222.426C295.523 220.249 295.403 218.219 295.366 217.49C293.71 217.544 291.768 218.526 290.644 219.768C289.409 221.097 288.659 222.761 288.762 224.66C290.55 224.842 292.207 223.964 293.593 222.426Z" fill="black"/>
<g filter="url(#filter14_d_783_235)">
<rect width="96.2499" height="71.2168" rx="10.2492" transform="matrix(0.999459 0.0328806 -0.0193728 0.999812 345.38 210.624)" fill="white" fill-opacity="0.62" shape-rendering="crispEdges"/>
</g>
<g filter="url(#filter15_d_783_235)">
<rect x="135" y="191" width="96" height="70" rx="10.2492" fill="white"/>
</g>
<path d="M197.034 221.277H195.904V221.219H183.283V226.828H191.208C190.052 230.094 186.945 232.438 183.283 232.438C178.636 232.438 174.869 228.67 174.869 224.024C174.869 219.377 178.636 215.609 183.283 215.609C185.428 215.609 187.379 216.419 188.865 217.74L192.832 213.774C190.327 211.44 186.977 210 183.283 210C175.538 210 169.259 216.279 169.259 224.024C169.259 231.768 175.538 238.047 183.283 238.047C191.028 238.047 197.307 231.768 197.307 224.024C197.307 223.083 197.21 222.166 197.034 221.277Z" fill="#FFC107"/>
<path d="M170.876 217.496L175.484 220.875C176.73 217.789 179.75 215.609 183.283 215.609C185.428 215.609 187.379 216.419 188.865 217.74L192.832 213.774C190.327 211.44 186.977 210 183.283 210C177.896 210 173.225 213.041 170.876 217.496Z" fill="#FF3D00"/>
<path d="M183.283 238.047C186.905 238.047 190.197 236.661 192.685 234.407L188.345 230.734C186.937 231.8 185.187 232.438 183.283 232.438C179.636 232.438 176.538 230.112 175.372 226.866L170.798 230.39C173.119 234.931 177.833 238.047 183.283 238.047Z" fill="#4CAF50"/>
<path d="M197.034 221.277H195.904V221.219H183.283V226.828H191.208C190.653 228.397 189.644 229.75 188.343 230.735C188.343 230.734 188.344 230.734 188.345 230.733L192.685 234.406C192.378 234.685 197.307 231.036 197.307 224.024C197.307 223.083 197.21 222.166 197.034 221.277Z" fill="#1976D2"/>
<g filter="url(#filter16_d_783_235)">
<rect width="96.2501" height="71.2168" rx="10.2492" transform="matrix(0.999457 -0.032965 0.0194225 0.999811 30 198)" fill="white"/>
</g>
<path fill-rule="evenodd" clip-rule="evenodd" d="M84.6508 220.745C87.39 220.489 89.5507 222.007 91.0074 223.782C92.4761 225.572 93.5165 227.934 94.1127 230.267C94.7087 232.598 94.9161 235.117 94.5252 237.277C94.1498 239.351 93.0692 241.741 90.506 242.563C88.0953 243.336 85.9398 242.355 84.3892 241.141C82.8338 239.923 81.499 238.195 80.443 236.569C79.9311 235.78 79.4636 234.983 79.049 234.228C78.673 235.003 78.2465 235.823 77.7751 236.636C76.8027 238.314 75.5571 240.108 74.0653 241.402C72.5781 242.693 70.4751 243.782 68.0282 243.132C65.4268 242.441 64.2266 240.109 63.7468 238.056C63.2472 235.918 63.3267 233.393 63.804 231.034C64.2815 228.674 65.2012 226.263 66.5774 224.401C67.9423 222.554 70.0235 220.929 72.7722 221.046C75.3506 221.156 77.2651 222.82 78.4674 224.239L78.8067 224.655L79.1245 224.222C80.2534 222.744 82.0811 220.985 84.6508 220.745ZM72.5724 225.453C71.9406 225.426 71.1252 225.763 70.2218 226.986C69.3297 228.193 68.6093 229.959 68.219 231.888C67.8286 233.818 67.8128 235.691 68.1343 237.067C68.4116 238.253 68.8184 238.671 69.0669 238.813L69.1693 238.862L69.2101 238.874C69.5616 238.968 70.133 238.926 71.0833 238.101C72.029 237.28 72.984 235.975 73.8623 234.46C74.254 233.784 74.6152 233.093 74.9391 232.429L75.3095 231.647L75.6416 230.908L75.9328 230.227L76.1804 229.621L76.3819 229.107C76.1356 228.653 75.784 228.067 75.3464 227.488C74.346 226.165 73.3602 225.487 72.5724 225.453ZM85.0732 225.137C84.2882 225.21 83.338 225.937 82.4058 227.309C81.9979 227.91 81.6766 228.513 81.4535 228.979L81.8136 229.768L82.1157 230.399C82.1699 230.51 82.226 230.623 82.284 230.739L82.653 231.461L83.0625 232.223C83.4197 232.87 83.8154 233.542 84.2407 234.197C85.1945 235.666 86.2144 236.921 87.2003 237.693C88.1204 238.413 88.68 238.476 89.0326 238.392L89.1104 238.371C89.3043 238.308 89.8263 237.987 90.0933 236.511C90.3448 235.121 90.2343 233.25 89.7467 231.343C89.2593 229.436 88.4504 227.709 87.4983 226.548C86.5343 225.373 85.703 225.078 85.0732 225.137Z" fill="#2C8CE4"/>
<g filter="url(#filter17_d_783_235)">
<rect width="96.2501" height="71.2168" rx="10.2492" transform="matrix(0.999457 -0.032965 0.0194225 0.999811 -76 213.797)" fill="white" fill-opacity="0.62" shape-rendering="crispEdges"/>
</g>
<g filter="url(#filter18_d_783_235)">
<path d="M280.022 331.509C278.87 328.704 281.674 325.9 284.479 327.052L305.904 335.845C308.752 337.014 308.723 341.057 305.858 342.185L300.259 344.387C299.415 344.719 298.737 345.374 298.376 346.206L295.264 353.375C294.062 356.147 290.117 356.107 288.97 353.312L280.022 331.509Z" fill="#AF92FF"/>
</g>
<rect x="271" y="315" width="4" height="11" rx="2" transform="rotate(-30 271 315)" fill="#DDDDDD"/>
<rect x="261.922" y="324.668" width="4" height="11" rx="2" transform="rotate(-66.4868 261.922 324.668)" fill="#DDDDDD"/>
<rect x="284.847" y="312" width="4" height="11" rx="2" transform="rotate(15 284.847 312)" fill="#DDDDDD"/>
</g>
<rect x="0.25" y="0.25" width="365.5" height="469.5" rx="19.75" stroke="#DFDFDF" stroke-width="0.5"/>
<defs>
<filter id="filter0_d_783_235" x="27.4776" y="174.722" width="311.462" height="311.462" filterUnits="userSpaceOnUse" color-interpolation-filters="sRGB">
<feFlood flood-opacity="0" result="BackgroundImageFix"/>
<feColorMatrix in="SourceAlpha" type="matrix" values="0 0 0 0 0 0 0 0 0 0 0 0 0 0 0 0 0 0 127 0" result="hardAlpha"/>
<feOffset/>
<feGaussianBlur stdDeviation="4.27049"/>
<feComposite in2="hardAlpha" operator="out"/>
<feColorMatrix type="matrix" values="0 0 0 0 0.341176 0 0 0 0 0.890196 0 0 0 0 0.847059 0 0 0 1 0"/>
<feBlend mode="normal" in2="BackgroundImageFix" result="effect1_dropShadow_783_235"/>
<feBlend mode="normal" in="SourceGraphic" in2="effect1_dropShadow_783_235" result="shape"/>
</filter>
<filter id="filter1_d_783_235" x="60.5032" y="274.937" width="245.981" height="42.705" filterUnits="userSpaceOnUse" color-interpolation-filters="sRGB">
<feFlood flood-opacity="0" result="BackgroundImageFix"/>
<feColorMatrix in="SourceAlpha" type="matrix" values="0 0 0 0 0 0 0 0 0 0 0 0 0 0 0 0 0 0 127 0" result="hardAlpha"/>
<feMorphology radius="3.41639" operator="erode" in="SourceAlpha" result="effect1_dropShadow_783_235"/>
<feOffset dy="2.2776"/>
<feGaussianBlur stdDeviation="2.84699"/>
<feComposite in2="hardAlpha" operator="out"/>
<feColorMatrix type="matrix" values="0 0 0 0 0.545654 0 0 0 0 0.545654 0 0 0 0 0.545654 0 0 0 0.25 0"/>
<feBlend mode="normal" in2="BackgroundImageFix" result="effect1_dropShadow_783_235"/>
<feBlend mode="normal" in="SourceGraphic" in2="effect1_dropShadow_783_235" result="shape"/>
</filter>
<filter id="filter2_d_783_235" x="93.8132" y="287.056" width="198.6" height="10.4735" filterUnits="userSpaceOnUse" color-interpolation-filters="sRGB">
<feFlood flood-opacity="0" result="BackgroundImageFix"/>
<feColorMatrix in="SourceAlpha" type="matrix" values="0 0 0 0 0 0 0 0 0 0 0 0 0 0 0 0 0 0 127 0" result="hardAlpha"/>
<feMorphology radius="3.41639" operator="erode" in="SourceAlpha" result="effect1_dropShadow_783_235"/>
<feOffset dy="2.2776"/>
<feGaussianBlur stdDeviation="2.84699"/>
<feComposite in2="hardAlpha" operator="out"/>
<feColorMatrix type="matrix" values="0 0 0 0 0.545654 0 0 0 0 0.545654 0 0 0 0 0.545654 0 0 0 0.25 0"/>
<feBlend mode="normal" in2="BackgroundImageFix" result="effect1_dropShadow_783_235"/>
<feBlend mode="normal" in="SourceGraphic" in2="effect1_dropShadow_783_235" result="shape"/>
</filter>
<filter id="filter3_d_783_235" x="176.883" y="297.481" width="115.501" height="10.4735" filterUnits="userSpaceOnUse" color-interpolation-filters="sRGB">
<feFlood flood-opacity="0" result="BackgroundImageFix"/>
<feColorMatrix in="SourceAlpha" type="matrix" values="0 0 0 0 0 0 0 0 0 0 0 0 0 0 0 0 0 0 127 0" result="hardAlpha"/>
<feMorphology radius="3.41639" operator="erode" in="SourceAlpha" result="effect1_dropShadow_783_235"/>
<feOffset dy="2.2776"/>
<feGaussianBlur stdDeviation="2.84699"/>
<feComposite in2="hardAlpha" operator="out"/>
<feColorMatrix type="matrix" values="0 0 0 0 0.545654 0 0 0 0 0.545654 0 0 0 0 0.545654 0 0 0 0.25 0"/>
<feBlend mode="normal" in2="BackgroundImageFix" result="effect1_dropShadow_783_235"/>
<feBlend mode="normal" in="SourceGraphic" in2="effect1_dropShadow_783_235" result="shape"/>
</filter>
<filter id="filter4_d_783_235" x="60.5034" y="366.041" width="245.981" height="42.705" filterUnits="userSpaceOnUse" color-interpolation-filters="sRGB">
<feFlood flood-opacity="0" result="BackgroundImageFix"/>
<feColorMatrix in="SourceAlpha" type="matrix" values="0 0 0 0 0 0 0 0 0 0 0 0 0 0 0 0 0 0 127 0" result="hardAlpha"/>
<feMorphology radius="3.41639" operator="erode" in="SourceAlpha" result="effect1_dropShadow_783_235"/>
<feOffset dy="2.2776"/>
<feGaussianBlur stdDeviation="2.84699"/>
<feComposite in2="hardAlpha" operator="out"/>
<feColorMatrix type="matrix" values="0 0 0 0 0.545654 0 0 0 0 0.545654 0 0 0 0 0.545654 0 0 0 0.25 0"/>
<feBlend mode="normal" in2="BackgroundImageFix" result="effect1_dropShadow_783_235"/>
<feBlend mode="normal" in="SourceGraphic" in2="effect1_dropShadow_783_235" result="shape"/>
</filter>
<filter id="filter5_d_783_235" x="60.5034" y="411.593" width="245.981" height="42.705" filterUnits="userSpaceOnUse" color-interpolation-filters="sRGB">
<feFlood flood-opacity="0" result="BackgroundImageFix"/>
<feColorMatrix in="SourceAlpha" type="matrix" values="0 0 0 0 0 0 0 0 0 0 0 0 0 0 0 0 0 0 127 0" result="hardAlpha"/>
<feMorphology radius="3.41639" operator="erode" in="SourceAlpha" result="effect1_dropShadow_783_235"/>
<feOffset dy="2.2776"/>
<feGaussianBlur stdDeviation="2.84699"/>
<feComposite in2="hardAlpha" operator="out"/>
<feColorMatrix type="matrix" values="0 0 0 0 0.545654 0 0 0 0 0.545654 0 0 0 0 0.545654 0 0 0 0.25 0"/>
<feBlend mode="normal" in2="BackgroundImageFix" result="effect1_dropShadow_783_235"/>
<feBlend mode="normal" in="SourceGraphic" in2="effect1_dropShadow_783_235" result="shape"/>
</filter>
<filter id="filter6_d_783_235" x="93.8132" y="376.86" width="198.6" height="10.4735" filterUnits="userSpaceOnUse" color-interpolation-filters="sRGB">
<feFlood flood-opacity="0" result="BackgroundImageFix"/>
<feColorMatrix in="SourceAlpha" type="matrix" values="0 0 0 0 0 0 0 0 0 0 0 0 0 0 0 0 0 0 127 0" result="hardAlpha"/>
<feMorphology radius="3.41639" operator="erode" in="SourceAlpha" result="effect1_dropShadow_783_235"/>
<feOffset dy="2.2776"/>
<feGaussianBlur stdDeviation="2.84699"/>
<feComposite in2="hardAlpha" operator="out"/>
<feColorMatrix type="matrix" values="0 0 0 0 0.545654 0 0 0 0 0.545654 0 0 0 0 0.545654 0 0 0 0.25 0"/>
<feBlend mode="normal" in2="BackgroundImageFix" result="effect1_dropShadow_783_235"/>
<feBlend mode="normal" in="SourceGraphic" in2="effect1_dropShadow_783_235" result="shape"/>
</filter>
<filter id="filter7_d_783_235" x="93.8132" y="422.412" width="198.6" height="10.4735" filterUnits="userSpaceOnUse" color-interpolation-filters="sRGB">
<feFlood flood-opacity="0" result="BackgroundImageFix"/>
<feColorMatrix in="SourceAlpha" type="matrix" values="0 0 0 0 0 0 0 0 0 0 0 0 0 0 0 0 0 0 127 0" result="hardAlpha"/>
<feMorphology radius="3.41639" operator="erode" in="SourceAlpha" result="effect1_dropShadow_783_235"/>
<feOffset dy="2.2776"/>
<feGaussianBlur stdDeviation="2.84699"/>
<feComposite in2="hardAlpha" operator="out"/>
<feColorMatrix type="matrix" values="0 0 0 0 0.545654 0 0 0 0 0.545654 0 0 0 0 0.545654 0 0 0 0.25 0"/>
<feBlend mode="normal" in2="BackgroundImageFix" result="effect1_dropShadow_783_235"/>
<feBlend mode="normal" in="SourceGraphic" in2="effect1_dropShadow_783_235" result="shape"/>
</filter>
<filter id="filter8_d_783_235" x="176.883" y="387.284" width="115.501" height="10.4735" filterUnits="userSpaceOnUse" color-interpolation-filters="sRGB">
<feFlood flood-opacity="0" result="BackgroundImageFix"/>
<feColorMatrix in="SourceAlpha" type="matrix" values="0 0 0 0 0 0 0 0 0 0 0 0 0 0 0 0 0 0 127 0" result="hardAlpha"/>
<feMorphology radius="3.41639" operator="erode" in="SourceAlpha" result="effect1_dropShadow_783_235"/>
<feOffset dy="2.2776"/>
<feGaussianBlur stdDeviation="2.84699"/>
<feComposite in2="hardAlpha" operator="out"/>
<feColorMatrix type="matrix" values="0 0 0 0 0.545654 0 0 0 0 0.545654 0 0 0 0 0.545654 0 0 0 0.25 0"/>
<feBlend mode="normal" in2="BackgroundImageFix" result="effect1_dropShadow_783_235"/>
<feBlend mode="normal" in="SourceGraphic" in2="effect1_dropShadow_783_235" result="shape"/>
</filter>
<filter id="filter9_d_783_235" x="176.883" y="432.836" width="115.501" height="10.4735" filterUnits="userSpaceOnUse" color-interpolation-filters="sRGB">
<feFlood flood-opacity="0" result="BackgroundImageFix"/>
<feColorMatrix in="SourceAlpha" type="matrix" values="0 0 0 0 0 0 0 0 0 0 0 0 0 0 0 0 0 0 127 0" result="hardAlpha"/>
<feMorphology radius="3.41639" operator="erode" in="SourceAlpha" result="effect1_dropShadow_783_235"/>
<feOffset dy="2.2776"/>
<feGaussianBlur stdDeviation="2.84699"/>
<feComposite in2="hardAlpha" operator="out"/>
<feColorMatrix type="matrix" values="0 0 0 0 0.545654 0 0 0 0 0.545654 0 0 0 0 0.545654 0 0 0 0.25 0"/>
<feBlend mode="normal" in2="BackgroundImageFix" result="effect1_dropShadow_783_235"/>
<feBlend mode="normal" in="SourceGraphic" in2="effect1_dropShadow_783_235" result="shape"/>
</filter>
<filter id="filter10_d_783_235" x="69.8924" y="310.171" width="246.667" height="64.8208" filterUnits="userSpaceOnUse" color-interpolation-filters="sRGB">
<feFlood flood-opacity="0" result="BackgroundImageFix"/>
<feColorMatrix in="SourceAlpha" type="matrix" values="0 0 0 0 0 0 0 0 0 0 0 0 0 0 0 0 0 0 127 0" result="hardAlpha"/>
<feMorphology radius="3.41639" operator="erode" in="SourceAlpha" result="effect1_dropShadow_783_235"/>
<feOffset dy="3.98579"/>
<feGaussianBlur stdDeviation="2.84699"/>
<feComposite in2="hardAlpha" operator="out"/>
<feColorMatrix type="matrix" values="0 0 0 0 0.534782 0 0 0 0 0.534782 0 0 0 0 0.534782 0 0 0 0.25 0"/>
<feBlend mode="normal" in2="BackgroundImageFix" result="effect1_dropShadow_783_235"/>
<feBlend mode="normal" in="SourceGraphic" in2="effect1_dropShadow_783_235" result="shape"/>
</filter>
<filter id="filter11_d_783_235" x="93.7784" y="319.92" width="197.79" height="27.9152" filterUnits="userSpaceOnUse" color-interpolation-filters="sRGB">
<feFlood flood-opacity="0" result="BackgroundImageFix"/>
<feColorMatrix in="SourceAlpha" type="matrix" values="0 0 0 0 0 0 0 0 0 0 0 0 0 0 0 0 0 0 127 0" result="hardAlpha"/>
<feMorphology radius="3.41639" operator="erode" in="SourceAlpha" result="effect1_dropShadow_783_235"/>
<feOffset dy="2.2776"/>
<feGaussianBlur stdDeviation="2.84699"/>
<feComposite in2="hardAlpha" operator="out"/>
<feColorMatrix type="matrix" values="0 0 0 0 0.545654 0 0 0 0 0.545654 0 0 0 0 0.545654 0 0 0 0.25 0"/>
<feBlend mode="normal" in2="BackgroundImageFix" result="effect1_dropShadow_783_235"/>
<feBlend mode="normal" in="SourceGraphic" in2="effect1_dropShadow_783_235" result="shape"/>
</filter>
<filter id="filter12_d_783_235" x="177.187" y="331.859" width="115.05" height="20.2111" filterUnits="userSpaceOnUse" color-interpolation-filters="sRGB">
<feFlood flood-opacity="0" result="BackgroundImageFix"/>
<feColorMatrix in="SourceAlpha" type="matrix" values="0 0 0 0 0 0 0 0 0 0 0 0 0 0 0 0 0 0 127 0" result="hardAlpha"/>
<feMorphology radius="3.41639" operator="erode" in="SourceAlpha" result="effect1_dropShadow_783_235"/>
<feOffset dy="2.2776"/>
<feGaussianBlur stdDeviation="2.84699"/>
<feComposite in2="hardAlpha" operator="out"/>
<feColorMatrix type="matrix" values="0 0 0 0 0.545654 0 0 0 0 0.545654 0 0 0 0 0.545654 0 0 0 0.25 0"/>
<feBlend mode="normal" in2="BackgroundImageFix" result="effect1_dropShadow_783_235"/>
<feBlend mode="normal" in="SourceGraphic" in2="effect1_dropShadow_783_235" result="shape"/>
</filter>
<filter id="filter13_d_783_235" x="229.137" y="192.652" width="116.544" height="93.0651" filterUnits="userSpaceOnUse" color-interpolation-filters="sRGB">
<feFlood flood-opacity="0" result="BackgroundImageFix"/>
<feColorMatrix in="SourceAlpha" type="matrix" values="0 0 0 0 0 0 0 0 0 0 0 0 0 0 0 0 0 0 127 0" result="hardAlpha"/>
<feMorphology radius="2.84699" operator="erode" in="SourceAlpha" result="effect1_dropShadow_783_235"/>
<feOffset dy="7"/>
<feGaussianBlur stdDeviation="6.26339"/>
<feComposite in2="hardAlpha" operator="out"/>
<feColorMatrix type="matrix" values="0 0 0 0 0.529281 0 0 0 0 0.529281 0 0 0 0 0.529281 0 0 0 0.25 0"/>
<feBlend mode="normal" in2="BackgroundImageFix" result="effect1_dropShadow_783_235"/>
<feBlend mode="normal" in="SourceGraphic" in2="effect1_dropShadow_783_235" result="shape"/>
</filter>
<filter id="filter14_d_783_235" x="334.517" y="201.275" width="116.544" height="93.0651" filterUnits="userSpaceOnUse" color-interpolation-filters="sRGB">
<feFlood flood-opacity="0" result="BackgroundImageFix"/>
<feColorMatrix in="SourceAlpha" type="matrix" values="0 0 0 0 0 0 0 0 0 0 0 0 0 0 0 0 0 0 127 0" result="hardAlpha"/>
<feMorphology radius="2.84699" operator="erode" in="SourceAlpha" result="effect1_dropShadow_783_235"/>
<feOffset/>
<feGaussianBlur stdDeviation="6.26339"/>
<feComposite in2="hardAlpha" operator="out"/>
<feColorMatrix type="matrix" values="0 0 0 0 0 0 0 0 0 0 0 0 0 0 0 0 0 0 0.25 0"/>
<feBlend mode="normal" in2="BackgroundImageFix" result="effect1_dropShadow_783_235"/>
<feBlend mode="normal" in="SourceGraphic" in2="effect1_dropShadow_783_235" result="shape"/>
</filter>
<filter id="filter15_d_783_235" x="125.32" y="188.32" width="115.36" height="89.3596" filterUnits="userSpaceOnUse" color-interpolation-filters="sRGB">
<feFlood flood-opacity="0" result="BackgroundImageFix"/>
<feColorMatrix in="SourceAlpha" type="matrix" values="0 0 0 0 0 0 0 0 0 0 0 0 0 0 0 0 0 0 127 0" result="hardAlpha"/>
<feMorphology radius="2.84699" operator="erode" in="SourceAlpha" result="effect1_dropShadow_783_235"/>
<feOffset dy="7"/>
<feGaussianBlur stdDeviation="6.26339"/>
<feComposite in2="hardAlpha" operator="out"/>
<feColorMatrix type="matrix" values="0 0 0 0 0.529281 0 0 0 0 0.529281 0 0 0 0 0.529281 0 0 0 0.25 0"/>
<feBlend mode="normal" in2="BackgroundImageFix" result="effect1_dropShadow_783_235"/>
<feBlend mode="normal" in="SourceGraphic" in2="effect1_dropShadow_783_235" result="shape"/>
</filter>
<filter id="filter16_d_783_235" x="20.5174" y="192.48" width="116.546" height="93.0715" filterUnits="userSpaceOnUse" color-interpolation-filters="sRGB">
<feFlood flood-opacity="0" result="BackgroundImageFix"/>
<feColorMatrix in="SourceAlpha" type="matrix" values="0 0 0 0 0 0 0 0 0 0 0 0 0 0 0 0 0 0 127 0" result="hardAlpha"/>
<feMorphology radius="2.84699" operator="erode" in="SourceAlpha" result="effect1_dropShadow_783_235"/>
<feOffset dy="7"/>
<feGaussianBlur stdDeviation="6.26339"/>
<feComposite in2="hardAlpha" operator="out"/>
<feColorMatrix type="matrix" values="0 0 0 0 0.529281 0 0 0 0 0.529281 0 0 0 0 0.529281 0 0 0 0.25 0"/>
<feBlend mode="normal" in2="BackgroundImageFix" result="effect1_dropShadow_783_235"/>
<feBlend mode="normal" in="SourceGraphic" in2="effect1_dropShadow_783_235" result="shape"/>
</filter>
<filter id="filter17_d_783_235" x="-85.4826" y="201.276" width="116.546" height="93.0715" filterUnits="userSpaceOnUse" color-interpolation-filters="sRGB">
<feFlood flood-opacity="0" result="BackgroundImageFix"/>
<feColorMatrix in="SourceAlpha" type="matrix" values="0 0 0 0 0 0 0 0 0 0 0 0 0 0 0 0 0 0 127 0" result="hardAlpha"/>
<feMorphology radius="2.84699" operator="erode" in="SourceAlpha" result="effect1_dropShadow_783_235"/>
<feOffset/>
<feGaussianBlur stdDeviation="6.26339"/>
<feComposite in2="hardAlpha" operator="out"/>
<feColorMatrix type="matrix" values="0 0 0 0 0 0 0 0 0 0 0 0 0 0 0 0 0 0 0.25 0"/>
<feBlend mode="normal" in2="BackgroundImageFix" result="effect1_dropShadow_783_235"/>
<feBlend mode="normal" in="SourceGraphic" in2="effect1_dropShadow_783_235" result="shape"/>
</filter>
<filter id="filter18_d_783_235" x="275.201" y="326.217" width="37.3771" height="37.755" filterUnits="userSpaceOnUse" color-interpolation-filters="sRGB">
<feFlood flood-opacity="0" result="BackgroundImageFix"/>
<feColorMatrix in="SourceAlpha" type="matrix" values="0 0 0 0 0 0 0 0 0 0 0 0 0 0 0 0 0 0 127 0" result="hardAlpha"/>
<feOffset dy="3.98579"/>
<feGaussianBlur stdDeviation="2.2776"/>
<feComposite in2="hardAlpha" operator="out"/>
<feColorMatrix type="matrix" values="0 0 0 0 0.883489 0 0 0 0 0.841618 0 0 0 0 1 0 0 0 1 0"/>
<feBlend mode="normal" in2="BackgroundImageFix" result="effect1_dropShadow_783_235"/>
<feBlend mode="normal" in="SourceGraphic" in2="effect1_dropShadow_783_235" result="shape"/>
</filter>
<clipPath id="clip0_783_235">
<rect width="366" height="470" rx="20" fill="white"/>
</clipPath>
</defs>
</svg>
